<svg width="1440" height="615" viewBox="0 0 1440 615" fill="none" xmlns="http://www.w3.org/2000/svg">
<g clip-path="url(#clip0_1339_9284)">
<mask id="mask0_1339_9284" style="mask-type:luminance" maskUnits="userSpaceOnUse" x="0" y="0" width="1440" height="615">
<path d="M1440 0H0V615H1440V0Z" fill="white"/>
</mask>
<g mask="url(#mask0_1339_9284)">
<g opacity="0.4">
<path d="M0 21.4986C57.7739 21.4986 93.3656 0 154.064 0C214.762 0 247.429 21.4986 308.127 21.4986C368.825 21.4986 401.493 0 462.191 0C522.889 0 554.629 21.4986 616.254 21.4986" stroke="#E4E6EA" stroke-width="0.750843"/>
<path d="M616.255 21.4986C674.028 21.4986 709.62 0 770.318 0C831.016 0 863.684 21.4986 924.382 21.4986C985.08 21.4986 1017.75 0 1078.45 0C1139.14 0 1170.88 21.4986 1232.51 21.4986" stroke="#E4E6EA" stroke-width="0.750843"/>
<path d="M1232.51 21.4986C1290.28 21.4986 1325.87 0 1386.57 0C1447.27 0 1479.94 21.4986 1540.64 21.4986C1601.33 21.4986 1634 0 1694.7 0C1755.4 0 1787.14 21.4986 1848.76 21.4986" stroke="#E4E6EA" stroke-width="0.750843"/>
<path d="M0 55.0109C57.7739 55.0109 93.3656 33.5122 154.064 33.5122C214.762 33.5122 247.429 55.0109 308.127 55.0109C368.825 55.0109 401.493 33.5122 462.191 33.5122C522.889 33.5122 554.629 55.0109 616.254 55.0109" stroke="#E4E6EA" stroke-width="0.750843"/>
<path d="M616.254 55.0108C674.028 55.0108 709.62 33.5122 770.318 33.5122C831.016 33.5122 863.683 55.0108 924.382 55.0108C985.08 55.0108 1017.75 33.5122 1078.45 33.5122C1139.14 33.5122 1170.88 55.0108 1232.51 55.0108" stroke="#E4E6EA" stroke-width="0.750843"/>
<path d="M1232.51 55.0108C1290.28 55.0108 1325.87 33.5122 1386.57 33.5122C1447.27 33.5122 1479.94 55.0108 1540.64 55.0108C1601.33 55.0108 1634 33.5122 1694.7 33.5122C1755.4 33.5122 1787.14 55.0108 1848.76 55.0108" stroke="#E4E6EA" stroke-width="0.750843"/>
<path d="M0 88.5228C57.7739 88.5228 93.3656 67.0242 154.064 67.0242C214.762 67.0242 247.429 88.5228 308.127 88.5228C368.825 88.5228 401.493 67.0242 462.191 67.0242C522.889 67.0242 554.629 88.5228 616.254 88.5228" stroke="#E4E6EA" stroke-width="0.750843"/>
<path d="M616.254 88.523C674.028 88.523 709.62 67.0244 770.318 67.0244C831.016 67.0244 863.683 88.523 924.382 88.523C985.08 88.523 1017.75 67.0244 1078.45 67.0244C1139.14 67.0244 1170.88 88.523 1232.51 88.523" stroke="#E4E6EA" stroke-width="0.750843"/>
<path d="M1232.51 88.523C1290.28 88.523 1325.87 67.0244 1386.57 67.0244C1447.27 67.0244 1479.94 88.523 1540.64 88.523C1601.33 88.523 1634 67.0244 1694.7 67.0244C1755.4 67.0244 1787.14 88.523 1848.76 88.523" stroke="#E4E6EA" stroke-width="0.750843"/>
<path d="M0 122.035C57.7739 122.035 93.3656 100.536 154.064 100.536C214.762 100.536 247.429 122.035 308.127 122.035C368.825 122.035 401.493 100.536 462.191 100.536C522.889 100.536 554.629 122.035 616.254 122.035" stroke="#E4E6EA" stroke-width="0.750843"/>
<path d="M616.254 122.035C674.028 122.035 709.62 100.536 770.318 100.536C831.016 100.536 863.683 122.035 924.382 122.035C985.08 122.035 1017.75 100.536 1078.45 100.536C1139.14 100.536 1170.88 122.035 1232.51 122.035" stroke="#E4E6EA" stroke-width="0.750843"/>
<path d="M1232.51 122.035C1290.28 122.035 1325.87 100.536 1386.57 100.536C1447.27 100.536 1479.94 122.035 1540.64 122.035C1601.33 122.035 1634 100.536 1694.7 100.536C1755.4 100.536 1787.14 122.035 1848.76 122.035" stroke="#E4E6EA" stroke-width="0.750843"/>
<path d="M0 155.547C57.7739 155.547 93.3656 134.048 154.064 134.048C214.762 134.048 247.429 155.547 308.127 155.547C368.825 155.547 401.493 134.048 462.191 134.048C522.889 134.048 554.629 155.547 616.254 155.547" stroke="#E4E6EA" stroke-width="0.750843"/>
<path d="M616.254 155.547C674.028 155.547 709.62 134.048 770.318 134.048C831.016 134.048 863.683 155.547 924.382 155.547C985.08 155.547 1017.75 134.048 1078.45 134.048C1139.14 134.048 1170.88 155.547 1232.51 155.547" stroke="#E4E6EA" stroke-width="0.750843"/>
<path d="M1232.51 155.547C1290.28 155.547 1325.87 134.048 1386.57 134.048C1447.27 134.048 1479.94 155.547 1540.64 155.547C1601.33 155.547 1634 134.048 1694.7 134.048C1755.4 134.048 1787.14 155.547 1848.76 155.547" stroke="#E4E6EA" stroke-width="0.750843"/>
<path d="M0 189.059C57.7739 189.059 93.3656 167.561 154.064 167.561C214.762 167.561 247.429 189.059 308.127 189.059C368.825 189.059 401.493 167.561 462.191 167.561C522.889 167.561 554.629 189.059 616.254 189.059" stroke="#E4E6EA" stroke-width="0.750843"/>
<path d="M616.254 189.059C674.028 189.059 709.62 167.561 770.318 167.561C831.016 167.561 863.683 189.059 924.382 189.059C985.08 189.059 1017.75 167.561 1078.45 167.561C1139.14 167.561 1170.88 189.059 1232.51 189.059" stroke="#E4E6EA" stroke-width="0.750843"/>
<path d="M1232.51 189.059C1290.28 189.059 1325.87 167.561 1386.57 167.561C1447.27 167.561 1479.94 189.059 1540.64 189.059C1601.33 189.059 1634 167.561 1694.7 167.561C1755.4 167.561 1787.14 189.059 1848.76 189.059" stroke="#E4E6EA" stroke-width="0.750843"/>
<path d="M0 222.571C57.7739 222.571 93.3656 201.073 154.064 201.073C214.762 201.073 247.429 222.571 308.127 222.571C368.825 222.571 401.493 201.073 462.191 201.073C522.889 201.073 554.629 222.571 616.254 222.571" stroke="#E4E6EA" stroke-width="0.750843"/>
<path d="M616.254 222.571C674.028 222.571 709.62 201.073 770.318 201.073C831.016 201.073 863.683 222.571 924.382 222.571C985.08 222.571 1017.75 201.073 1078.45 201.073C1139.14 201.073 1170.88 222.571 1232.51 222.571" stroke="#E4E6EA" stroke-width="0.750843"/>
<path d="M1232.51 222.571C1290.28 222.571 1325.87 201.073 1386.57 201.073C1447.27 201.073 1479.94 222.571 1540.64 222.571C1601.33 222.571 1634 201.073 1694.7 201.073C1755.4 201.073 1787.14 222.571 1848.76 222.571" stroke="#E4E6EA" stroke-width="0.750843"/>
<path d="M0 256.083C57.7739 256.083 93.3656 234.585 154.064 234.585C214.762 234.585 247.429 256.083 308.127 256.083C368.825 256.083 401.493 234.585 462.191 234.585C522.889 234.585 554.629 256.083 616.254 256.083" stroke="#E4E6EA" stroke-width="0.750843"/>
<path d="M616.254 256.083C674.028 256.083 709.62 234.585 770.318 234.585C831.016 234.585 863.683 256.083 924.382 256.083C985.08 256.083 1017.75 234.585 1078.45 234.585C1139.14 234.585 1170.88 256.083 1232.51 256.083" stroke="#E4E6EA" stroke-width="0.750843"/>
<path d="M1232.51 256.083C1290.28 256.083 1325.87 234.585 1386.57 234.585C1447.27 234.585 1479.94 256.083 1540.64 256.083C1601.33 256.083 1634 234.585 1694.7 234.585C1755.4 234.585 1787.14 256.083 1848.76 256.083" stroke="#E4E6EA" stroke-width="0.750843"/>
<path d="M0 289.595C57.7739 289.595 93.3656 268.097 154.064 268.097C214.762 268.097 247.429 289.595 308.127 289.595C368.825 289.595 401.493 268.097 462.191 268.097C522.889 268.097 554.629 289.595 616.254 289.595" stroke="#E4E6EA" stroke-width="0.750843"/>
<path d="M616.254 289.595C674.028 289.595 709.62 268.097 770.318 268.097C831.016 268.097 863.683 289.595 924.382 289.595C985.08 289.595 1017.75 268.097 1078.45 268.097C1139.14 268.097 1170.88 289.595 1232.51 289.595" stroke="#E4E6EA" stroke-width="0.750843"/>
<path d="M1232.51 289.595C1290.28 289.595 1325.87 268.097 1386.57 268.097C1447.27 268.097 1479.94 289.595 1540.64 289.595C1601.33 289.595 1634 268.097 1694.7 268.097C1755.4 268.097 1787.14 289.595 1848.76 289.595" stroke="#E4E6EA" stroke-width="0.750843"/>
<path d="M0 323.108C57.7739 323.108 93.3656 301.609 154.064 301.609C214.762 301.609 247.429 323.108 308.127 323.108C368.825 323.108 401.493 301.609 462.191 301.609C522.889 301.609 554.629 323.108 616.254 323.108" stroke="#E4E6EA" stroke-width="0.750843"/>
<path d="M616.254 323.108C674.028 323.108 709.62 301.609 770.318 301.609C831.016 301.609 863.683 323.108 924.382 323.108C985.08 323.108 1017.75 301.609 1078.45 301.609C1139.14 301.609 1170.88 323.108 1232.51 323.108" stroke="#E4E6EA" stroke-width="0.750843"/>
<path d="M1232.51 323.108C1290.28 323.108 1325.87 301.609 1386.57 301.609C1447.27 301.609 1479.94 323.108 1540.64 323.108C1601.33 323.108 1634 301.609 1694.7 301.609C1755.4 301.609 1787.14 323.108 1848.76 323.108" stroke="#E4E6EA" stroke-width="0.750843"/>
<path d="M0 356.62C57.7739 356.62 93.3656 335.121 154.064 335.121C214.762 335.121 247.429 356.62 308.127 356.62C368.825 356.62 401.493 335.121 462.191 335.121C522.889 335.121 554.629 356.62 616.254 356.62" stroke="#E4E6EA" stroke-width="0.750843"/>
<path d="M616.254 356.62C674.028 356.62 709.62 335.121 770.318 335.121C831.016 335.121 863.683 356.62 924.382 356.62C985.08 356.62 1017.75 335.121 1078.45 335.121C1139.14 335.121 1170.88 356.62 1232.51 356.62" stroke="#E4E6EA" stroke-width="0.750843"/>
<path d="M1232.51 356.62C1290.28 356.62 1325.87 335.121 1386.57 335.121C1447.27 335.121 1479.94 356.62 1540.64 356.62C1601.33 356.62 1634 335.121 1694.7 335.121C1755.4 335.121 1787.14 356.62 1848.76 356.62" stroke="#E4E6EA" stroke-width="0.750843"/>
<path d="M0 390.132C57.7739 390.132 93.3656 368.633 154.064 368.633C214.762 368.633 247.429 390.132 308.127 390.132C368.825 390.132 401.493 368.633 462.191 368.633C522.889 368.633 554.629 390.132 616.254 390.132" stroke="#E4E6EA" stroke-width="0.750843"/>
<path d="M616.254 390.132C674.028 390.132 709.62 368.633 770.318 368.633C831.016 368.633 863.683 390.132 924.382 390.132C985.08 390.132 1017.75 368.633 1078.45 368.633C1139.14 368.633 1170.88 390.132 1232.51 390.132" stroke="#E4E6EA" stroke-width="0.750843"/>
<path d="M1232.51 390.132C1290.28 390.132 1325.87 368.633 1386.57 368.633C1447.27 368.633 1479.94 390.132 1540.64 390.132C1601.33 390.132 1634 368.633 1694.7 368.633C1755.4 368.633 1787.14 390.132 1848.76 390.132" stroke="#E4E6EA" stroke-width="0.750843"/>
<path d="M0 423.644C57.7739 423.644 93.3656 402.145 154.064 402.145C214.762 402.145 247.429 423.644 308.127 423.644C368.825 423.644 401.493 402.145 462.191 402.145C522.889 402.145 554.629 423.644 616.254 423.644" stroke="#E4E6EA" stroke-width="0.750843"/>
<path d="M616.254 423.644C674.028 423.644 709.62 402.145 770.318 402.145C831.016 402.145 863.683 423.644 924.382 423.644C985.08 423.644 1017.75 402.145 1078.45 402.145C1139.14 402.145 1170.88 423.644 1232.51 423.644" stroke="#E4E6EA" stroke-width="0.750843"/>
<path d="M1232.51 423.644C1290.28 423.644 1325.87 402.145 1386.57 402.145C1447.27 402.145 1479.94 423.644 1540.64 423.644C1601.33 423.644 1634 402.145 1694.7 402.145C1755.4 402.145 1787.14 423.644 1848.76 423.644" stroke="#E4E6EA" stroke-width="0.750843"/>
<path d="M0 457.156C57.7739 457.156 93.3656 435.657 154.064 435.657C214.762 435.657 247.429 457.156 308.127 457.156C368.825 457.156 401.493 435.657 462.191 435.657C522.889 435.657 554.629 457.156 616.254 457.156" stroke="#E4E6EA" stroke-width="0.750843"/>
<path d="M616.254 457.156C674.028 457.156 709.62 435.657 770.318 435.657C831.016 435.657 863.683 457.156 924.382 457.156C985.08 457.156 1017.75 435.657 1078.45 435.657C1139.14 435.657 1170.88 457.156 1232.51 457.156" stroke="#E4E6EA" stroke-width="0.750843"/>
<path d="M1232.51 457.156C1290.28 457.156 1325.87 435.657 1386.57 435.657C1447.27 435.657 1479.94 457.156 1540.64 457.156C1601.33 457.156 1634 435.657 1694.7 435.657C1755.4 435.657 1787.14 457.156 1848.76 457.156" stroke="#E4E6EA" stroke-width="0.750843"/>
<path d="M0 490.668C57.7739 490.668 93.3656 469.169 154.064 469.169C214.762 469.169 247.429 490.668 308.127 490.668C368.825 490.668 401.493 469.169 462.191 469.169C522.889 469.169 554.629 490.668 616.254 490.668" stroke="#E4E6EA" stroke-width="0.750843"/>
<path d="M616.254 490.668C674.028 490.668 709.62 469.17 770.318 469.17C831.016 469.17 863.683 490.668 924.382 490.668C985.08 490.668 1017.75 469.17 1078.45 469.17C1139.14 469.17 1170.88 490.668 1232.51 490.668" stroke="#E4E6EA" stroke-width="0.750843"/>
<path d="M1232.51 490.668C1290.28 490.668 1325.87 469.17 1386.57 469.17C1447.27 469.17 1479.94 490.668 1540.64 490.668C1601.33 490.668 1634 469.17 1694.7 469.17C1755.4 469.17 1787.14 490.668 1848.76 490.668" stroke="#E4E6EA" stroke-width="0.750843"/>
<path d="M0 524.18C57.7739 524.18 93.3656 502.682 154.064 502.682C214.762 502.682 247.429 524.18 308.127 524.18C368.825 524.18 401.493 502.682 462.191 502.682C522.889 502.682 554.629 524.18 616.254 524.18" stroke="#E4E6EA" stroke-width="0.750843"/>
<path d="M616.254 524.18C674.028 524.18 709.62 502.681 770.318 502.681C831.016 502.681 863.683 524.18 924.382 524.18C985.08 524.18 1017.75 502.681 1078.45 502.681C1139.14 502.681 1170.88 524.18 1232.51 524.18" stroke="#E4E6EA" stroke-width="0.750843"/>
<path d="M1232.51 524.18C1290.28 524.18 1325.87 502.681 1386.57 502.681C1447.27 502.681 1479.94 524.18 1540.64 524.18C1601.33 524.18 1634 502.681 1694.7 502.681C1755.4 502.681 1787.14 524.18 1848.76 524.18" stroke="#E4E6EA" stroke-width="0.750843"/>
<path d="M0 557.692C57.7739 557.692 93.3656 536.194 154.064 536.194C214.762 536.194 247.429 557.692 308.127 557.692C368.825 557.692 401.493 536.194 462.191 536.194C522.889 536.194 554.629 557.692 616.254 557.692" stroke="#E4E6EA" stroke-width="0.750843"/>
<path d="M616.254 557.692C674.028 557.692 709.62 536.194 770.318 536.194C831.016 536.194 863.683 557.692 924.382 557.692C985.08 557.692 1017.75 536.194 1078.45 536.194C1139.14 536.194 1170.88 557.692 1232.51 557.692" stroke="#E4E6EA" stroke-width="0.750843"/>
<path d="M1232.51 557.692C1290.28 557.692 1325.87 536.194 1386.57 536.194C1447.27 536.194 1479.94 557.692 1540.64 557.692C1601.33 557.692 1634 536.194 1694.7 536.194C1755.4 536.194 1787.14 557.692 1848.76 557.692" stroke="#E4E6EA" stroke-width="0.750843"/>
<path d="M0 591.204C57.7739 591.204 93.3656 569.706 154.064 569.706C214.762 569.706 247.429 591.204 308.127 591.204C368.825 591.204 401.493 569.706 462.191 569.706C522.889 569.706 554.629 591.204 616.254 591.204" stroke="#E4E6EA" stroke-width="0.750843"/>
<path d="M616.254 591.204C674.028 591.204 709.62 569.706 770.318 569.706C831.016 569.706 863.683 591.204 924.382 591.204C985.08 591.204 1017.75 569.706 1078.45 569.706C1139.14 569.706 1170.88 591.204 1232.51 591.204" stroke="#E4E6EA" stroke-width="0.750843"/>
<path d="M1232.51 591.204C1290.28 591.204 1325.87 569.706 1386.57 569.706C1447.27 569.706 1479.94 591.204 1540.64 591.204C1601.33 591.204 1634 569.706 1694.7 569.706C1755.4 569.706 1787.14 591.204 1848.76 591.204" stroke="#E4E6EA" stroke-width="0.750843"/>
<path d="M0 624.717C57.7739 624.717 93.3656 603.218 154.064 603.218C214.762 603.218 247.429 624.717 308.127 624.717C368.825 624.717 401.493 603.218 462.191 603.218C522.889 603.218 554.629 624.717 616.254 624.717" stroke="#E4E6EA" stroke-width="0.750843"/>
<path d="M616.254 624.717C674.028 624.717 709.62 603.218 770.318 603.218C831.016 603.218 863.683 624.717 924.382 624.717C985.08 624.717 1017.75 603.218 1078.45 603.218C1139.14 603.218 1170.88 624.717 1232.51 624.717" stroke="#E4E6EA" stroke-width="0.750843"/>
<path d="M1232.51 624.717C1290.28 624.717 1325.87 603.218 1386.57 603.218C1447.27 603.218 1479.94 624.717 1540.64 624.717C1601.33 624.717 1634 603.218 1694.7 603.218C1755.4 603.218 1787.14 624.717 1848.76 624.717" stroke="#E4E6EA" stroke-width="0.750843"/>
</g>
</g>
</g>
<defs>
<clipPath id="clip0_1339_9284">
<rect width="1440" height="615" fill="white"/>
</clipPath>
</defs>
</svg>
