<svg xmlns="http://www.w3.org/2000/svg" xmlns:xlink="http://www.w3.org/1999/xlink" width="500" zoomAndPan="magnify" viewBox="0 0 375 374.999991" height="500" preserveAspectRatio="xMidYMid meet" version="1.2"><defs><clipPath id="8b8ec27867"><path d="M 9 136.597656 L 96 136.597656 L 96 195 L 9 195 Z M 9 136.597656 "/></clipPath><clipPath id="9a2dfb21ee"><path d="M 11 180 L 98 180 L 98 238.597656 L 11 238.597656 Z M 11 180 "/></clipPath></defs><g id="b111b14ad8"><g clip-rule="nonzero" clip-path="url(#8b8ec27867)"><path style=" stroke:none;fill-rule:nonzero;fill:#286291;fill-opacity:1;" d="M 44.972656 194.214844 C 44.972656 194.214844 30.273438 195.164062 20.398438 190.835938 C 4.167969 183.71875 2.695312 164.726562 37.394531 161.878906 C 59.285156 160.082031 89.285156 157.109375 94.703125 136.59375 C 94.703125 136.59375 104.195312 162.644531 46.566406 175.328125 C 0.0234375 185.570312 44.972656 194.214844 44.972656 194.214844 "/></g><g clip-rule="nonzero" clip-path="url(#9a2dfb21ee)"><path style=" stroke:none;fill-rule:nonzero;fill:#54afe6;fill-opacity:1;" d="M 61.527344 180.980469 C 61.527344 180.980469 76.226562 180.03125 86.101562 184.359375 C 102.332031 191.476562 103.804688 210.46875 69.105469 213.316406 C 47.214844 215.113281 17.214844 218.085938 11.796875 238.601562 C 11.796875 238.601562 2.304688 212.550781 59.933594 199.867188 C 106.476562 189.625 61.527344 180.980469 61.527344 180.980469 "/></g><g style="fill:#286291;fill-opacity:1;"><g transform="translate(98.00504, 211.072456)"><path style="stroke:none" d="M 6.3125 -60.40625 L 6.3125 -68.328125 L 14.59375 -68.328125 L 14.59375 -60.40625 Z M 6.3125 0 L 6.3125 -49.8125 L 14.59375 -49.8125 L 14.59375 0 Z M 6.3125 0 "/></g><g transform="translate(118.953232, 211.072456)"><path style="stroke:none" d="M 35.359375 0 L 35.359375 -31.578125 C 35.359375 -36.398438 34.695312 -39.734375 33.375 -41.578125 C 32.0625 -43.421875 29.6875 -44.34375 26.25 -44.34375 C 22.71875 -44.34375 19.921875 -42.988281 17.859375 -40.28125 C 15.804688 -37.582031 14.78125 -33.78125 14.78125 -28.875 L 14.78125 0 L 6.53125 0 L 6.53125 -39.1875 C 6.53125 -44.988281 6.441406 -48.53125 6.265625 -49.8125 L 14.09375 -49.8125 C 14.125 -49.664062 14.15625 -49.253906 14.1875 -48.578125 C 14.21875 -47.898438 14.253906 -47.125 14.296875 -46.25 C 14.335938 -45.375 14.390625 -43.722656 14.453125 -41.296875 L 14.59375 -41.296875 C 16.375 -44.828125 18.414062 -47.28125 20.71875 -48.65625 C 23.019531 -50.039062 25.828125 -50.734375 29.140625 -50.734375 C 32.921875 -50.734375 35.90625 -49.984375 38.09375 -48.484375 C 40.289062 -46.984375 41.820312 -44.585938 42.6875 -41.296875 L 42.828125 -41.296875 C 44.546875 -44.640625 46.625 -47.046875 49.0625 -48.515625 C 51.5 -49.992188 54.453125 -50.734375 57.921875 -50.734375 C 62.953125 -50.734375 66.609375 -49.367188 68.890625 -46.640625 C 71.179688 -43.910156 72.328125 -39.429688 72.328125 -33.203125 L 72.328125 0 L 64.140625 0 L 64.140625 -31.578125 C 64.140625 -36.398438 63.476562 -39.734375 62.15625 -41.578125 C 60.832031 -43.421875 58.453125 -44.34375 55.015625 -44.34375 C 51.398438 -44.34375 48.585938 -43 46.578125 -40.3125 C 44.566406 -37.625 43.5625 -33.8125 43.5625 -28.875 L 43.5625 0 Z M 35.359375 0 "/></g><g transform="translate(197.497442, 211.072456)"><path style="stroke:none" d="M 6.359375 0 L 6.359375 -68.328125 L 14.640625 -68.328125 L 14.640625 0 Z M 6.359375 0 "/></g><g transform="translate(218.445634, 211.072456)"><path style="stroke:none" d="M 12.703125 -23.15625 C 12.703125 -17.445312 13.882812 -13.039062 16.25 -9.9375 C 18.613281 -6.84375 22.066406 -5.296875 26.609375 -5.296875 C 30.203125 -5.296875 33.082031 -6.015625 35.25 -7.453125 C 37.414062 -8.898438 38.878906 -10.726562 39.640625 -12.9375 L 46.921875 -10.859375 C 43.941406 -3.003906 37.171875 0.921875 26.609375 0.921875 C 19.242188 0.921875 13.632812 -1.269531 9.78125 -5.65625 C 5.925781 -10.050781 4 -16.578125 4 -25.234375 C 4 -33.460938 5.925781 -39.769531 9.78125 -44.15625 C 13.632812 -48.539062 19.140625 -50.734375 26.296875 -50.734375 C 40.929688 -50.734375 48.25 -41.910156 48.25 -24.265625 L 48.25 -23.15625 Z M 39.6875 -29.515625 C 39.226562 -34.765625 37.894531 -38.59375 35.6875 -41 C 33.476562 -43.40625 30.300781 -44.609375 26.15625 -44.609375 C 22.132812 -44.609375 18.945312 -43.265625 16.59375 -40.578125 C 14.25 -37.898438 12.984375 -34.210938 12.796875 -29.515625 Z M 39.6875 -29.515625 "/></g><g transform="translate(270.885174, 211.072456)"><path style="stroke:none" d="M 43.734375 -13.765625 C 43.734375 -9.066406 41.960938 -5.441406 38.421875 -2.890625 C 34.878906 -0.347656 29.914062 0.921875 23.53125 0.921875 C 17.332031 0.921875 12.550781 -0.0976562 9.1875 -2.140625 C 5.820312 -4.179688 3.632812 -7.363281 2.625 -11.6875 L 9.953125 -13.125 C 10.648438 -10.445312 12.101562 -8.488281 14.3125 -7.25 C 16.53125 -6.007812 19.601562 -5.390625 23.53125 -5.390625 C 27.738281 -5.390625 30.816406 -6.03125 32.765625 -7.3125 C 34.710938 -8.601562 35.6875 -10.539062 35.6875 -13.125 C 35.6875 -15.082031 35.007812 -16.675781 33.65625 -17.90625 C 32.300781 -19.132812 30.125 -20.148438 27.125 -20.953125 L 21.1875 -22.515625 C 16.425781 -23.742188 13.039062 -24.945312 11.03125 -26.125 C 9.019531 -27.3125 7.445312 -28.75 6.3125 -30.4375 C 5.175781 -32.125 4.609375 -34.195312 4.609375 -36.65625 C 4.609375 -41.195312 6.222656 -44.65625 9.453125 -47.03125 C 12.691406 -49.414062 17.414062 -50.609375 23.625 -50.609375 C 29.113281 -50.609375 33.476562 -49.640625 36.71875 -47.703125 C 39.957031 -45.765625 42.003906 -42.664062 42.859375 -38.40625 L 35.40625 -37.484375 C 34.945312 -39.691406 33.710938 -41.382812 31.703125 -42.5625 C 29.691406 -43.75 27 -44.34375 23.625 -44.34375 C 19.875 -44.34375 17.109375 -43.773438 15.328125 -42.640625 C 13.546875 -41.503906 12.65625 -39.785156 12.65625 -37.484375 C 12.65625 -36.066406 13.023438 -34.894531 13.765625 -33.96875 C 14.503906 -33.050781 15.59375 -32.269531 17.03125 -31.625 C 18.476562 -30.988281 21.519531 -30.101562 26.15625 -28.96875 C 30.539062 -27.851562 33.695312 -26.828125 35.625 -25.890625 C 37.5625 -24.960938 39.09375 -23.929688 40.21875 -22.796875 C 41.34375 -21.660156 42.207031 -20.347656 42.8125 -18.859375 C 43.425781 -17.367188 43.734375 -15.671875 43.734375 -13.765625 Z M 43.734375 -13.765625 "/></g><g transform="translate(318.030116, 211.072456)"><path style="stroke:none" d="M 43.734375 -13.765625 C 43.734375 -9.066406 41.960938 -5.441406 38.421875 -2.890625 C 34.878906 -0.347656 29.914062 0.921875 23.53125 0.921875 C 17.332031 0.921875 12.550781 -0.0976562 9.1875 -2.140625 C 5.820312 -4.179688 3.632812 -7.363281 2.625 -11.6875 L 9.953125 -13.125 C 10.648438 -10.445312 12.101562 -8.488281 14.3125 -7.25 C 16.53125 -6.007812 19.601562 -5.390625 23.53125 -5.390625 C 27.738281 -5.390625 30.816406 -6.03125 32.765625 -7.3125 C 34.710938 -8.601562 35.6875 -10.539062 35.6875 -13.125 C 35.6875 -15.082031 35.007812 -16.675781 33.65625 -17.90625 C 32.300781 -19.132812 30.125 -20.148438 27.125 -20.953125 L 21.1875 -22.515625 C 16.425781 -23.742188 13.039062 -24.945312 11.03125 -26.125 C 9.019531 -27.3125 7.445312 -28.75 6.3125 -30.4375 C 5.175781 -32.125 4.609375 -34.195312 4.609375 -36.65625 C 4.609375 -41.195312 6.222656 -44.65625 9.453125 -47.03125 C 12.691406 -49.414062 17.414062 -50.609375 23.625 -50.609375 C 29.113281 -50.609375 33.476562 -49.640625 36.71875 -47.703125 C 39.957031 -45.765625 42.003906 -42.664062 42.859375 -38.40625 L 35.40625 -37.484375 C 34.945312 -39.691406 33.710938 -41.382812 31.703125 -42.5625 C 29.691406 -43.75 27 -44.34375 23.625 -44.34375 C 19.875 -44.34375 17.109375 -43.773438 15.328125 -42.640625 C 13.546875 -41.503906 12.65625 -39.785156 12.65625 -37.484375 C 12.65625 -36.066406 13.023438 -34.894531 13.765625 -33.96875 C 14.503906 -33.050781 15.59375 -32.269531 17.03125 -31.625 C 18.476562 -30.988281 21.519531 -30.101562 26.15625 -28.96875 C 30.539062 -27.851562 33.695312 -26.828125 35.625 -25.890625 C 37.5625 -24.960938 39.09375 -23.929688 40.21875 -22.796875 C 41.34375 -21.660156 42.207031 -20.347656 42.8125 -18.859375 C 43.425781 -17.367188 43.734375 -15.671875 43.734375 -13.765625 Z M 43.734375 -13.765625 "/></g></g></g></svg>