<svg width="360" height="320" viewBox="0 0 360 320" fill="none" xmlns="http://www.w3.org/2000/svg">
<rect x="-0.45" y="0.45" width="96.6" height="27.6" transform="matrix(-1 0 0 1 259.35 88)" fill="white" stroke="#292B2E" stroke-width="0.9"/>
<path d="M186.75 97.75C185.646 91.6784 182.342 84.7182 180.457 81.307C180.182 80.808 179.64 80.5245 179.071 80.5633L149.513 82.5787C148.379 82.656 147.739 83.9175 148.348 84.8778L160.823 104.575C161.09 104.997 161.547 105.259 162.047 105.268C171.251 105.429 187.916 104.16 186.75 97.75Z" fill="#292B2E"/>
<rect x="205.2" y="43.45" width="90.6" height="27.6" fill="white" stroke="#292B2E" stroke-width="0.9"/>
<path d="M288.75 43H305.25L317.25 57.25L305.25 71.5H288.75V43Z" fill="#BFEBFF"/>
<path d="M184.97 82.9299C189.905 82.3334 193.281 76.6914 192.512 70.3281C191.743 63.9649 187.119 59.2901 182.184 59.8866L114.214 65.7631C109.28 66.3597 105.903 72.0017 106.672 78.3649C107.441 84.7281 112.065 89.4029 117 88.8064L184.97 82.9299Z" fill="#BFEBFF"/>
<path d="M184.739 82.1245C180.167 82.6773 175.882 78.3451 175.169 72.4483C174.456 66.5514 177.585 61.323 182.158 60.7702" stroke="#292B2E" stroke-width="0.9" stroke-linecap="round"/>
<path d="M180.795 71.9496C180.437 68.9913 182.007 66.3682 184.301 66.0909C186.596 65.8135 188.745 67.9869 189.103 70.9453C189.291 72.4972 188.948 73.9569 188.248 75.034" stroke="#292B2E" stroke-width="0.9" stroke-linecap="round"/>
<path d="M118.342 266.48C121.968 267.452 125.161 268.745 127.392 270.061C128.505 270.717 129.405 271.394 129.999 272.061C130.576 272.708 130.964 273.464 130.76 274.228C130.555 274.991 129.841 275.451 129.017 275.723C128.17 276.004 127.052 276.141 125.76 276.153C123.17 276.177 119.759 275.699 116.132 274.727C112.506 273.756 109.313 272.463 107.081 271.148C105.969 270.492 105.068 269.813 104.474 269.147C103.897 268.5 103.509 267.744 103.713 266.981C103.917 266.217 104.632 265.756 105.455 265.484C106.303 265.204 107.422 265.068 108.713 265.056C111.304 265.032 114.715 265.509 118.342 266.48Z" fill="#292B2E" stroke="white" stroke-width="1.05"/>
<path d="M180.677 260.704C184.436 260.5 187.889 260.848 190.441 261.587C191.714 261.957 192.792 262.432 193.572 263.008C194.348 263.582 194.893 264.308 194.94 265.177C194.987 266.045 194.524 266.825 193.814 267.479C193.101 268.137 192.08 268.726 190.854 269.231C188.398 270.242 185.002 270.959 181.244 271.162C177.485 271.366 174.031 271.019 171.479 270.279C170.206 269.91 169.129 269.434 168.349 268.858C167.573 268.284 167.027 267.558 166.98 266.69C166.933 265.822 167.397 265.041 168.107 264.387C168.82 263.729 169.84 263.141 171.066 262.636C173.522 261.625 176.919 260.907 180.677 260.704Z" fill="#292B2E" stroke="white" stroke-width="1.05"/>
<path d="M86.25 295L93 262L120 263.5L104.25 295H86.25Z" fill="white" stroke="#292B2E" stroke-width="0.9"/>
<path d="M156 295L153.75 256.75H180.75L178.5 292L156 295Z" fill="white" stroke="#292B2E" stroke-width="0.9"/>
<rect x="225.75" y="29.5" width="9" height="261" fill="#BFEBFF"/>
<path d="M224.25 14.5H236.25V29.5H224.25V14.5Z" fill="#BFEBFF"/>
<path d="M224.25 29.5H236.25" stroke="#292B2E" stroke-width="0.9" stroke-linecap="round"/>
<path d="M221.25 272.5C215.25 272.5 214.25 279 214.5 282.25C209.25 276.25 193.5 268 186 279.25C180 288.25 183 299.5 185.25 304H292.5C294.5 303.5 298.5 301.3 298.5 296.5C298.5 291.7 291 291 287.25 291.25C288 290 289.05 286.45 287.25 282.25C285.45 278.05 279.5 278.5 276.75 279.25C282.75 262 267.75 253 252 258.25C239.4 262.45 233.25 275 231.75 280.75C230.75 278 227.25 272.5 221.25 272.5Z" fill="white"/>
<path d="M214.5 282.25C214.25 279 215.25 272.5 221.25 272.5C227.25 272.5 230.75 278 231.75 280.75C233.25 275 239.4 262.45 252 258.25C267.75 253 282.75 262 276.75 279.25M214.5 282.25C209.25 276.25 193.5 268 186 279.25C180 288.25 183 299.5 185.25 304H292.5C294.5 303.5 298.5 301.3 298.5 296.5C298.5 291.7 291 291 287.25 291.25C288 290 289.05 286.45 287.25 282.25C285.45 278.05 279.5 278.5 276.75 279.25M214.5 282.25L219.75 288.25M276.75 279.25C271.35 281.65 269 284.25 268.5 285.25" stroke="#292B2E" stroke-width="1.05" stroke-linecap="round"/>
<path d="M163.5 174.25L141.75 217.75C138 229.75 136.299 235.037 134.25 245.5C131.931 257.341 130.5 274 130.5 274C124.5 269.5 118.21 267.941 111 266.5C104.01 265.337 97.1672 265.893 90 268L103.5 210.25L117 160L141 154L145.591 158.132C147.51 155.176 147.848 157.556 147.667 160L163.5 174.25Z" fill="#292B2E"/>
<path d="M111 266.5C119.893 234.25 135 183.85 141 168.25C147 152.65 147.944 156.25 147.667 160M111 266.5C104.01 265.337 97.1672 265.893 90 268L103.5 210.25L117 160L141 154L147.667 160M111 266.5C118.21 267.941 124.5 269.5 130.5 274C130.5 274 131.931 257.341 134.25 245.5C136.299 235.037 138 229.75 141.75 217.75L163.5 174.25L147.667 160" stroke="white" stroke-width="0.9" stroke-linecap="round" stroke-linejoin="round"/>
<path d="M121.5 164.896L135.75 149.896L150 145.75L166.5 140.95L172.5 137.896C183.483 161.326 189.329 190.099 192.522 215.179C192.6 215.788 192.676 216.395 192.75 217C195.079 235.915 195.924 256.282 195 265.75C195 265.75 190.5 262 175.082 262C159.75 265 151.5 269.501 151.5 269.501C149.365 255.623 149.112 244.148 146.744 218.5C145.118 200.9 141.166 179.938 140.25 168.646L121.5 164.896Z" fill="#292B2E"/>
<path d="M175.082 262C159.75 265 151.5 269.501 151.5 269.501C149.365 255.623 149.112 244.148 146.744 218.5C145.118 200.9 141.166 179.938 140.25 168.646L121.5 164.896L135.75 149.896L150 145.75M175.082 262C190.5 262 195 265.75 195 265.75C195.924 256.282 195.079 235.915 192.75 217C192.676 216.395 192.6 215.788 192.522 215.179C189.329 190.099 183.483 161.326 172.5 137.896L166.5 140.95M175.082 262C176.205 232.763 176.205 246.237 175.082 217C174.457 200.7 170.817 179.124 168.955 161.896M166.5 140.95C167.433 147.345 168.247 155.353 168.955 161.896M166.5 140.95L150 145.75M168.955 161.896C165.136 163.146 156.75 164.596 153.75 160.396C150.75 156.196 150 148.382 150 145.75" stroke="white" stroke-width="0.9" stroke-linecap="round" stroke-linejoin="round"/>
<path d="M138.75 295C136.95 295.6 137 297.75 137.25 298.75C150 298.25 176.7 296.65 181.5 294.25C186.3 291.85 182.5 284.75 180 281.5C181.75 279.5 184.2 275.5 180 275.5C174.75 275.5 172.5 291.25 171 290.5C169.8 289.9 164 289.75 161.25 289.75C161.25 288.5 160.8 285.85 159 285.25C156.75 284.5 154.5 284.5 154.5 286C154.5 287.2 152.5 288.5 151.5 289C148 290.75 140.55 294.4 138.75 295Z" fill="#BFEBFF"/>
<path d="M141 294.25C141.75 294.5 144.6 294.85 150 294.25C155.4 293.65 159.25 291 160.5 289.75" stroke="#292B2E" stroke-width="0.9" stroke-linecap="round"/>
<path d="M144 304C137.97 304 136.896 301 137.396 298.75L178.5 295.75C180.75 295.25 184.95 293.5 183.75 290.5C193.5 295 191.25 303.25 185.25 304C180.45 304.6 177.847 302.75 177.146 301.75C175.896 302.5 172.796 304 170.396 304C167.996 304 165.396 303 164.396 302.5C163.146 303 160.046 304 157.646 304C155.246 304 152.146 303 150.896 302.5C149.25 303.25 147.75 304 144 304Z" fill="white" stroke="#292B2E" stroke-width="0.9" stroke-linejoin="round"/>
<path d="M71.3768 295C69.5768 295.6 69.6268 297.75 69.8768 298.75C82.6268 298.25 109.327 296.65 114.127 294.25C118.927 291.85 115.127 284.75 112.627 281.5C114.377 279.5 116.827 275.5 112.627 275.5C107.377 275.5 105.127 291.25 103.627 290.5C102.427 289.9 96.6269 289.75 93.8769 289.75C93.8769 288.5 93.4269 285.85 91.6269 285.25C89.3769 284.5 87.1269 284.5 87.1269 286C87.1269 287.2 85.1269 288.5 84.1269 289C80.6269 290.75 73.1768 294.4 71.3768 295Z" fill="#BFEBFF"/>
<path d="M73.627 294.25C74.377 294.5 77.227 294.85 82.627 294.25C88.027 293.65 91.877 291 93.127 289.75" stroke="#292B2E" stroke-width="0.9" stroke-linecap="round"/>
<path d="M76.6268 304C70.5968 304 69.5232 301 70.0232 298.75L111.127 295.75C113.377 295.25 117.577 293.5 116.377 290.5C126.127 295 123.877 303.25 117.877 304C113.077 304.6 110.474 302.75 109.773 301.75C108.523 302.5 105.423 304 103.023 304C100.623 304 98.0232 303 97.0232 302.5C95.7732 303 92.6732 304 90.2732 304C87.8732 304 84.7732 303 83.5232 302.5C81.8768 303.25 80.3768 304 76.6268 304Z" fill="white" stroke="#292B2E" stroke-width="0.9" stroke-linejoin="round"/>
<path d="M151.5 76.9727C146.7 76.9727 138.75 78.7502 136.5 79.7502L122.25 83.5004C117.25 83.5004 106.5 84.5504 103.5 88.7504C99.7498 94.0004 98.2498 103 102.75 115.75C106.35 125.95 108.75 153 109.5 165.25L146.25 148L177 139.36C184.369 138.175 191.811 135.376 196.5 132.25C205.5 126.25 203.25 118.75 188.25 100C173.25 81.2504 157.5 76.9727 151.5 76.9727Z" fill="white"/>
<path d="M177 109.75C171.38 110.312 168.287 110.453 164.25 111.12M177 139.36C184.369 138.175 191.811 135.376 196.5 132.25C205.5 126.25 203.25 118.75 188.25 100C173.25 81.2504 157.5 76.9727 151.5 76.9727C146.7 76.9727 138.75 78.7502 136.5 79.7502L122.25 83.5004C117.25 83.5004 106.5 84.5504 103.5 88.7504C99.7498 94.0004 98.2498 103 102.75 115.75C106.35 125.95 108.75 153 109.5 165.25L146.25 148L177 139.36ZM177 139.36C170.195 140.455 163.453 140.173 159 137.5C164.757 130.303 163.43 119.361 159.75 112C161.442 111.624 162.899 111.342 164.25 111.12M164.25 111.12C162.75 109.413 155.55 102.7 153.75 98.5002" stroke="#292B2E" stroke-width="0.9" stroke-linecap="round"/>
<path d="M124.571 83.5001C123.126 83.2561 122.624 82.2764 122.525 81.2282L122.525 81.2281C122.321 79.0833 122.22 78.0108 122.145 77.7467C122.021 77.3106 122.087 77.4688 121.862 77.0754C121.725 76.8371 121.481 76.5489 120.993 75.9723C118.922 73.5284 115.622 69.3699 112.922 64.7501C108.206 56.6805 106.806 50.1312 112.5 45.2502C117.75 40.7502 124.33 39.5679 130.416 41.6495C139.993 44.9247 139.554 54.3042 147 61.7501C156.75 71.5001 164.652 67.684 171.75 71.5001C181.263 76.6151 189.536 95.012 184.5 95.5001C174.75 84.2501 169.5 82.0001 156 77.5001C152.388 76.296 146.25 77.5001 146.25 77.5001L124.571 83.5001Z" fill="#292B2E"/>
<path d="M132.704 67.9327C132.704 73.75 135.954 77.6826 137.954 79.9326C134.204 90.9734 122.5 87.8917 120.75 83.8917L120 72.6417C123.5 69.8917 132.704 64.9327 132.704 67.9327Z" fill="white" stroke="#292B2E" stroke-width="0.9" stroke-linecap="round"/>
<path d="M120.714 45.8334C120.714 45.8334 124.834 53.1976 129.464 55.5556C133.345 57.5321 140.547 57.5 140.547 57.5" stroke="#292B2E" stroke-width="0.9"/>
<path d="M108.5 65C109.077 71.0767 112.758 76.647 118 77C120.342 77.1577 122.233 75.4932 124.5 74L131.25 71.5007L137.25 52.0008L110.758 47.9244C107.932 53.8886 108.012 59.8578 108.5 65Z" fill="white"/>
<path d="M122.814 44.3285C122.814 44.3285 112.559 45.0772 111.75 46.7502C110.941 48.4232 108.8 52.7882 108.8 52.7882C114.789 52.7737 117.51 49.9886 117.51 49.9886C121.614 56.4251 131.631 58.4228 134.009 58.4085L143.052 59.5474L137.748 52.238L122.814 44.3285Z" fill="#292B2E"/>
<path d="M127.5 71.5008C130.554 69.4651 129 76.7507 120.75 80.5008C120.75 80.5008 120.85 77.8059 120 76.0008C122.25 75.2508 125.25 73.0008 127.5 71.5008Z" fill="#292B2E"/>
<path d="M129.661 60.4107C129.661 60.4107 131.497 56.7347 135.126 56.7057C138.548 56.6784 139.812 61.4937 135.372 66.0466C134.689 66.7461 133.371 67.7346 132.233 68.2463" stroke="#292B2E" stroke-width="0.789095" stroke-linecap="round"/>
<path d="M129.661 60.4103C129.661 60.4103 131.497 56.7343 135.126 56.7053C138.548 56.678 139.812 61.4933 135.372 66.0463C134.689 66.7457 133.371 67.7342 132.233 68.2459" fill="white"/>
<path d="M129.661 60.4103C129.661 60.4103 131.497 56.7343 135.126 56.7053C138.548 56.678 139.812 61.4933 135.372 66.0463C134.689 66.7457 133.371 67.7342 132.233 68.2459" stroke="#292B2E" stroke-width="0.789095" stroke-linecap="round"/>
<path d="M135.496 59.4441C135.496 59.4441 132.497 60.1519 131.922 63.9792" stroke="#292B2E" stroke-width="0.526064" stroke-linecap="round"/>
<path d="M110.758 47.9238C107.933 53.8881 108.012 59.8578 108.5 65C109.077 71.0767 112.5 76 117 76.5C122.218 77.0797 125.234 73.7434 127.501 72.2502" stroke="#292B2E" stroke-width="0.9" stroke-linecap="round"/>
<path d="M143.25 96.615C143.25 105.958 145.42 111.191 146.728 112.989C146.896 113.22 147.146 113.369 147.422 113.446L150.739 114.37C151.794 114.664 152.806 113.766 152.66 112.68C152.147 108.842 151.5 102.53 151.5 96.615C151.5 89.9226 155.434 81.3384 157.649 77.5387C157.991 76.9518 157.923 76.2035 157.326 75.8799C155.317 74.7911 151.361 74.1152 149.587 74.738C149.358 74.8186 149.18 74.9927 149.051 75.1994C146.997 78.5072 143.25 86.9087 143.25 96.615Z" fill="#292B2E"/>
<ellipse cx="159.128" cy="128.708" rx="8.94791" ry="2.90856" transform="rotate(96.1474 159.128 128.708)" fill="#292B2E"/>
<path d="M140.25 129.25C146.817 128.156 155.546 130.721 160.065 132.509C160.753 132.78 161.552 132.543 161.879 131.88C164.87 125.824 162.787 117.474 160.963 113.052C160.703 112.424 160.036 112.087 159.363 112.188C153.409 113.087 145.414 113.011 141.348 112.813C140.693 112.781 140.089 113.165 139.851 113.777L139.825 113.843C136.884 121.4 133.384 130.394 140.25 129.25Z" fill="white" stroke="#292B2E" stroke-width="0.9"/>
<path d="M63 96.25L42 89.5L75.75 178L89.25 187.75L108 178L122.25 186.25L147.75 172L141 82.75L108 91L87.75 86.5L63 96.25Z" fill="#BFEBFF"/>
<path d="M63 96.25L78 148.75M89.25 187L83.25 166M90.75 109.75L104.25 171.25M123 185.5L118.476 157M108 91L113.238 124" stroke="#292B2E" stroke-width="0.9" stroke-linecap="round"/>
<path d="M55.4925 138.052C56.464 140.334 59.3346 141.052 61.68 140.863L59.7583 135.984C67.0194 130.043 65.007 129.031 61.7953 129.756C61.0486 129.924 60.251 130.218 59.5035 130.612C57.2281 131.813 55.6045 134.117 55.0806 135.674C54.6921 136.827 55.1823 137.323 55.4925 138.052Z" fill="white"/>
<path d="M59.7558 130.088C57.3911 131.102 55.9963 132.697 55.3487 134.206C54.1746 133.424 52.588 131.57 53.6638 129.419C53.0182 128.743 52.3289 127.292 53.1561 125.666C52.2186 124.199 51.8438 121.645 55.138 118.821C58.0791 116.3 60.419 116.181 61.079 116.841C62.4543 118.217 60.419 120.142 58.8843 121.676C60.9355 121.087 62.3145 121.47 62.6973 121.852C63.4647 122.62 62.6974 124.338 62.1091 125.154C63.0447 125.268 63.6878 125.598 63.8739 125.97C64.4621 127.147 62.6973 128.75 62.1091 129.419C61.3512 129.527 60.5326 129.755 59.7558 130.088Z" fill="white"/>
<path d="M59.7588 135.984C66.9183 130.734 65.3687 128.956 62.1091 129.419M55.3487 134.206C54.8686 135.325 54.7991 136.396 55.0496 137.147C55.726 139.176 59.1721 140.768 61.6172 141.168M55.3487 134.206C55.9963 132.697 57.3911 131.102 59.7558 130.088C60.5326 129.755 61.3512 129.527 62.1091 129.419M55.3487 134.206C54.1746 133.424 52.588 131.57 53.6638 129.419M62.1091 129.419C62.6973 128.75 64.4621 127.147 63.8739 125.97C63.6878 125.598 63.0447 125.268 62.1091 125.154M53.6638 129.419C53.9371 128.873 54.3822 128.307 55.0496 127.735C57.7113 125.454 60.3989 124.945 62.1091 125.154M53.6638 129.419C53.0182 128.743 52.3289 127.292 53.1561 125.666M62.1091 125.154C62.6974 124.338 63.4647 122.62 62.6973 121.852C62.3145 121.47 60.9355 121.087 58.8843 121.676M53.1561 125.666C53.4957 124.999 54.091 124.302 55.0498 123.617C56.4883 122.59 57.7831 121.993 58.8843 121.676M53.1561 125.666C52.2186 124.199 51.8438 121.645 55.138 118.821C58.0791 116.3 60.419 116.181 61.079 116.841C62.4543 118.217 60.419 120.142 58.8843 121.676" stroke="#292B2E" stroke-width="0.792128" stroke-linecap="round"/>
<path d="M119.256 69.4316C119.386 70.7697 118.81 73.1797 115.465 72.1156" stroke="#292B2E" stroke-width="0.681955" stroke-linecap="round"/>
<path d="M115.397 62.5249C115.155 63.3489 114.967 64.2298 113.537 65.2006C112.029 66.2239 113.944 67.4689 115.18 67.8323" stroke="#292B2E" stroke-width="0.681955" stroke-linecap="round"/>
<path d="M108.033 56.6215L108.095 56.3905L108.165 56.1821C108.216 56.0516 108.273 55.9246 108.336 55.8016C108.464 55.5557 108.618 55.3291 108.793 55.1267C109.159 54.6944 109.609 54.3713 110.104 54.1845C110.363 54.0812 110.633 54.0202 110.906 54.0033C111.183 53.9888 111.46 54.0224 111.728 54.1029C111.991 54.1802 112.24 54.3105 112.465 54.488C112.687 54.6595 112.876 54.8832 113.019 55.1448C113.106 55.3059 113.135 55.5007 113.1 55.6867C113.064 55.8726 112.967 56.0345 112.829 56.1368C112.775 56.1788 112.715 56.2095 112.651 56.2274L112.542 56.2591C112.321 56.3271 112.155 56.3543 111.973 56.395L111.527 56.5037C111.255 56.5762 111.023 56.6396 110.751 56.7166C110.48 56.7937 110.212 56.8933 109.898 57.0156L109.406 57.2149L109.138 57.3146C108.931 57.4084 108.706 57.4335 108.487 57.3871C108.373 57.3622 108.265 57.3064 108.173 57.224C108.113 57.1664 108.066 57.0925 108.036 57.0088C108.006 56.9251 107.995 56.8341 108.002 56.7438C108.011 56.7024 108.021 56.6616 108.033 56.6215Z" fill="#292B2E"/>
<path d="M123.311 58.3261L123.249 58.0951L123.179 57.8867C123.128 57.7562 123.071 57.6292 123.008 57.5062C122.88 57.2603 122.726 57.0337 122.551 56.8313C122.185 56.399 121.735 56.0758 121.24 55.8891C120.981 55.7858 120.711 55.7248 120.437 55.7079C120.161 55.6934 119.884 55.727 119.615 55.8075C119.353 55.8847 119.103 56.0151 118.879 56.1926C118.657 56.3641 118.468 56.5878 118.324 56.8494C118.237 57.0105 118.208 57.2053 118.244 57.3912C118.28 57.5772 118.377 57.739 118.514 57.8414C118.569 57.8834 118.629 57.9141 118.693 57.932L118.801 57.9637C119.022 58.0317 119.189 58.0588 119.371 58.0996L119.817 58.2083C120.089 58.2808 120.321 58.3442 120.593 58.4212C120.864 58.4982 121.131 58.5979 121.446 58.7202L121.938 58.9195L122.206 59.0192C122.413 59.113 122.638 59.1381 122.857 59.0917C122.971 59.0668 123.079 59.011 123.171 58.9286C123.231 58.871 123.278 58.7971 123.308 58.7134C123.337 58.6297 123.349 58.5387 123.342 58.4484C123.333 58.407 123.323 58.3662 123.311 58.3261Z" fill="#292B2E"/>
<ellipse cx="119.445" cy="62.5369" rx="1.17762" ry="1.70306" transform="rotate(-1.26872 119.445 62.5369)" fill="#292B2E"/>
<ellipse cx="110.92" cy="62.5484" rx="1.17762" ry="1.70306" transform="rotate(-1.26872 110.92 62.5484)" fill="#292B2E"/>
</svg>
