<svg width="360" height="320" viewBox="0 0 360 320" fill="none" xmlns="http://www.w3.org/2000/svg">
<rect x="60.45" y="62.45" width="101.1" height="194.1" rx="14.55" fill="#292B2E" stroke="#292B2E" stroke-width="0.9"/>
<rect x="54.45" y="62.45" width="101.1" height="194.1" rx="14.55" fill="white" stroke="#292B2E" stroke-width="0.9"/>
<rect x="91.95" y="68.45" width="27.6" height="8.1" rx="4.05" fill="#292B2E" stroke="#292B2E" stroke-width="0.9"/>
<circle cx="105" cy="158" r="31.5" fill="#BFEBFF"/>
<path d="M91.5 160.759L99.7975 170L120 147.5" stroke="#292B2E" stroke-width="1.5" stroke-linecap="round" stroke-linejoin="round"/>
<path fill-rule="evenodd" clip-rule="evenodd" d="M255.206 202.431C251.912 199.97 247.226 200.8 244.977 204.242L215.162 249.877C214.709 250.571 213.779 250.766 213.086 250.313L212.458 249.902C211.764 249.449 211.569 248.52 212.023 247.826L241.838 202.191C245.27 196.938 252.423 195.671 257.45 199.427L310.807 239.287C311.471 239.783 311.607 240.723 311.111 241.387L310.662 241.988C310.166 242.651 309.226 242.787 308.563 242.292L255.206 202.431Z" fill="white" stroke="#292B2E" stroke-width="0.9" stroke-linecap="round" stroke-linejoin="round"/>
<circle cx="214.272" cy="249.741" r="7.6881" fill="#BFEBFF"/>
<circle cx="214.272" cy="249.741" r="3.2949" fill="#292B2E"/>
<path d="M214.272 240.625V246.358C214.272 247.659 215.816 248.343 216.78 247.469L223.106 241.736C224.123 240.815 223.471 239.125 222.099 239.125H215.772C214.944 239.125 214.272 239.796 214.272 240.625Z" fill="white" stroke="#292B2E" stroke-width="0.9" stroke-linecap="round" stroke-linejoin="round"/>
<circle cx="304.297" cy="249.741" r="7.6881" fill="#BFEBFF"/>
<circle cx="304.296" cy="249.741" r="3.2949" fill="#292B2E"/>
<path d="M304.297 240.625V246.358C304.297 247.659 305.84 248.343 306.804 247.469L313.13 241.736C314.147 240.815 313.495 239.125 312.123 239.125H305.797C304.968 239.125 304.297 239.796 304.297 240.625Z" fill="white" stroke="#292B2E" stroke-width="0.9" stroke-linecap="round" stroke-linejoin="round"/>
<path fill-rule="evenodd" clip-rule="evenodd" d="M223.722 202.431C220.428 199.97 215.741 200.8 213.493 204.242L183.678 249.877C183.224 250.571 182.295 250.766 181.601 250.313L180.974 249.902C180.28 249.449 180.085 248.52 180.538 247.826L210.353 202.191C213.785 196.938 220.939 195.671 225.966 199.427L279.323 239.287C279.986 239.783 280.123 240.723 279.627 241.387L279.178 241.988C278.682 242.651 277.742 242.787 277.078 242.292L223.722 202.431Z" fill="white" stroke="#292B2E" stroke-width="0.9" stroke-linecap="round" stroke-linejoin="round"/>
<circle cx="182.788" cy="249.741" r="7.6881" fill="#BFEBFF"/>
<circle cx="182.788" cy="249.741" r="3.2949" fill="#292B2E"/>
<path d="M182.787 240.625V246.358C182.787 247.659 184.33 248.343 185.294 247.469L191.621 241.736C192.637 240.815 191.986 239.125 190.613 239.125H184.287C183.459 239.125 182.787 239.796 182.787 240.625Z" fill="white" stroke="#292B2E" stroke-width="0.9" stroke-linecap="round" stroke-linejoin="round"/>
<circle cx="272.812" cy="249.741" r="7.6881" fill="#BFEBFF"/>
<circle cx="272.812" cy="249.741" r="3.2949" fill="#292B2E"/>
<path d="M272.812 240.625V246.358C272.812 247.659 274.356 248.343 275.32 247.469L281.646 241.736C282.663 240.815 282.011 239.125 280.639 239.125H274.312C273.484 239.125 272.812 239.796 272.812 240.625Z" fill="white" stroke="#292B2E" stroke-width="0.9" stroke-linecap="round" stroke-linejoin="round"/>
<path fill-rule="evenodd" clip-rule="evenodd" d="M210.651 137.19C210.614 136.982 210.535 136.785 210.417 136.61L198.074 118.292C197.612 117.605 197.793 116.672 198.48 116.21L199.102 115.79C199.789 115.328 200.722 115.509 201.184 116.196L213.75 134.846C214.015 135.239 214.194 135.683 214.276 136.15L224.608 195.199C224.75 196.015 224.205 196.793 223.389 196.935L222.65 197.065C221.834 197.207 221.056 196.662 220.914 195.846L210.651 137.19Z" fill="#292B2E" stroke="#292B2E" stroke-width="0.9" stroke-linecap="round" stroke-linejoin="round"/>
<path fill-rule="evenodd" clip-rule="evenodd" d="M160.372 137.189C160.334 136.991 160.256 136.803 160.143 136.635L147.783 118.292C147.321 117.605 147.502 116.672 148.189 116.21L148.811 115.79C149.498 115.328 150.431 115.509 150.893 116.196L162.634 133.622C162.913 134.035 163.379 134.283 163.878 134.283H320.446C322.732 134.283 324.357 136.509 323.66 138.686L305.164 196.528C304.717 197.926 303.417 198.875 301.949 198.875H175.067C173.45 198.875 172.06 197.728 171.754 196.14L160.372 137.189ZM166.172 138.033C165.229 138.033 164.52 138.892 164.699 139.818L167.146 152.493C167.282 153.199 167.9 153.709 168.619 153.709H277.07C277.71 153.709 278.28 153.302 278.488 152.697L282.847 140.021C283.182 139.047 282.459 138.033 281.429 138.033H166.172ZM288.567 138.033C287.926 138.033 287.357 138.44 287.148 139.046L282.789 151.721C282.454 152.695 283.178 153.709 284.208 153.709H313.824C314.477 153.709 315.054 153.287 315.253 152.666L319.306 139.99C319.616 139.022 318.894 138.033 317.878 138.033H288.567ZM313.095 159.416C313.404 158.448 312.682 157.459 311.666 157.459H281.886C281.246 157.459 280.676 157.865 280.468 158.471L275.667 172.429C275.333 173.403 276.056 174.417 277.086 174.417H307.202C307.855 174.417 308.432 173.995 308.631 173.374L313.095 159.416ZM306.473 180.124C306.782 179.156 306.06 178.167 305.044 178.167H274.765C274.124 178.167 273.554 178.573 273.346 179.179L268.546 193.137C268.211 194.111 268.934 195.125 269.964 195.125H300.58C301.233 195.125 301.81 194.703 302.009 194.082L306.473 180.124ZM262.826 195.125C263.467 195.125 264.036 194.718 264.245 194.113L269.045 180.155C269.38 179.181 268.656 178.167 267.626 178.167H173.92C172.978 178.167 172.269 179.026 172.447 179.951L175.142 193.909C175.279 194.615 175.896 195.125 176.615 195.125H262.826ZM171.144 173.201C171.28 173.907 171.898 174.417 172.617 174.417H269.948C270.588 174.417 271.158 174.01 271.366 173.405L276.167 159.447C276.502 158.473 275.778 157.459 274.748 157.459H169.922C168.98 157.459 168.271 158.318 168.449 159.243L171.144 173.201Z" fill="white" stroke="#292B2E" stroke-width="0.9" stroke-linecap="round" stroke-linejoin="round"/>
<path d="M138 114.5C138 112.843 139.343 111.5 141 111.5H207C208.657 111.5 210 112.843 210 114.5C210 116.157 208.657 117.5 207 117.5H141C139.343 117.5 138 116.157 138 114.5Z" fill="white" stroke="#292B2E" stroke-width="0.9" stroke-linecap="round"/>
<circle cx="141" cy="114.5" r="3" fill="white" stroke="#292B2E" stroke-width="0.9" stroke-linecap="round"/>
</svg>
