<svg id="svg" version="1.1" xmlns="http://www.w3.org/2000/svg" xmlns:xlink="http://www.w3.org/1999/xlink" width="400" height="400" viewBox="0, 0, 400,400"><g id="svgg"><path id="path0" d="M235.461 174.747 C 234.942 174.951,235.538 175.199,237.461 175.580 C 238.967 175.879,241.910 176.560,244.000 177.094 C 246.090 177.629,249.150 178.382,250.800 178.768 C 252.450 179.153,254.700 179.746,255.800 180.085 C 256.900 180.424,258.610 180.930,259.600 181.209 C 264.198 182.503,276.008 186.415,278.114 187.341 C 278.821 187.652,280.840 188.505,282.600 189.236 C 323.551 206.246,311.484 225.192,249.614 241.032 C 246.651 241.790,243.681 242.585,243.014 242.798 C 242.346 243.011,239.910 243.629,237.600 244.171 C 235.290 244.713,231.060 245.717,228.200 246.401 C 222.195 247.839,218.548 248.686,216.000 249.235 C 210.808 250.355,204.816 251.868,197.200 253.984 C 195.550 254.443,192.490 255.268,190.400 255.818 C 188.310 256.369,186.150 256.976,185.600 257.168 C 185.050 257.360,183.250 257.904,181.600 258.376 C 174.830 260.315,172.764 260.951,167.800 262.622 C 159.513 265.412,155.489 266.828,154.200 267.407 C 153.540 267.703,152.188 268.211,151.196 268.536 C 148.893 269.288,142.018 271.942,141.100 272.433 C 140.715 272.639,139.264 273.234,137.876 273.757 C 136.489 274.279,134.374 275.155,133.177 275.703 C 131.979 276.251,130.100 277.107,129.000 277.604 C 81.615 299.022,52.134 326.148,41.983 357.671 C 39.595 365.087,38.623 372.176,38.948 379.800 C 39.171 385.039,40.076 392.209,40.577 392.710 C 40.907 393.040,41.600 392.344,41.605 391.676 C 41.610 391.090,42.439 388.592,44.419 383.200 C 48.987 370.762,62.148 354.527,75.718 344.590 C 77.213 343.496,79.193 342.048,80.118 341.373 C 85.511 337.437,100.824 329.273,108.200 326.399 C 110.620 325.457,113.860 324.185,115.400 323.573 C 118.877 322.192,131.831 317.830,134.800 317.040 C 136.010 316.718,138.350 316.084,140.000 315.631 C 144.437 314.413,152.712 312.395,155.000 311.973 C 156.834 311.635,158.655 311.250,162.400 310.406 C 163.768 310.098,168.605 309.146,172.600 308.398 C 173.700 308.192,175.500 307.852,176.600 307.641 C 177.700 307.430,181.120 306.880,184.200 306.419 C 187.280 305.958,190.880 305.414,192.200 305.211 C 193.520 305.008,196.130 304.642,198.000 304.398 C 199.870 304.154,202.570 303.780,204.000 303.567 C 209.438 302.756,235.510 300.064,246.200 299.209 C 263.993 297.786,275.902 296.394,291.200 293.951 C 298.126 292.845,312.079 289.207,320.200 286.389 C 339.353 279.743,356.429 268.127,362.283 257.763 C 366.912 249.567,368.069 245.607,368.059 238.000 C 368.027 213.585,344.095 190.961,308.600 181.790 C 306.620 181.278,303.920 180.569,302.600 180.215 C 290.753 177.031,264.998 174.392,246.200 174.434 C 240.700 174.446,235.867 174.587,235.461 174.747 " stroke="none" fill="#4189bc" fill-rule="evenodd"></path><path id="path1" d="M0.000 200.000 L 0.000 400.000 200.000 400.000 L 400.000 400.000 400.000 200.000 L 400.000 0.000 200.000 0.000 L 0.000 0.000 0.000 200.000 M360.091 7.630 C 361.935 15.747,361.923 26.563,360.062 35.000 C 359.162 39.076,358.203 42.446,357.148 45.234 C 356.517 46.903,356.000 48.405,356.000 48.573 C 356.000 49.504,349.290 62.292,347.979 63.858 C 347.638 64.266,346.871 65.364,346.275 66.297 C 340.350 75.583,327.686 88.088,314.400 97.775 C 306.432 103.583,301.628 106.614,290.000 113.168 C 287.941 114.329,276.493 120.017,270.200 123.007 C 265.937 125.033,261.244 127.003,258.800 127.793 C 257.590 128.184,256.150 128.736,255.600 129.018 C 255.050 129.301,253.610 129.893,252.400 130.334 C 251.190 130.775,248.310 131.849,246.000 132.721 C 243.690 133.593,240.540 134.700,239.000 135.182 C 237.460 135.664,235.840 136.210,235.400 136.397 C 233.714 137.112,223.929 140.222,220.800 141.037 C 219.590 141.352,218.240 141.785,217.800 141.998 C 217.360 142.211,214.930 142.941,212.400 143.621 C 209.870 144.300,206.810 145.126,205.600 145.456 C 204.390 145.786,202.320 146.318,201.000 146.638 C 199.680 146.958,198.060 147.379,197.400 147.573 C 196.740 147.767,193.860 148.490,191.000 149.180 C 188.140 149.869,185.170 150.598,184.400 150.800 C 180.602 151.797,177.457 152.535,174.000 153.240 C 169.947 154.067,156.201 157.362,154.200 157.986 C 153.540 158.192,150.120 159.095,146.600 159.992 C 143.080 160.889,139.750 161.773,139.200 161.956 C 138.650 162.139,137.480 162.505,136.600 162.771 C 135.720 163.036,134.640 163.412,134.200 163.606 C 133.760 163.801,132.230 164.313,130.800 164.744 C 126.445 166.058,120.957 168.101,118.705 169.247 C 118.323 169.441,117.817 169.600,117.580 169.600 C 116.405 169.600,103.415 176.528,102.071 177.872 C 101.770 178.173,101.044 178.667,100.458 178.970 C 98.856 179.798,95.189 183.961,94.292 185.969 C 90.759 193.877,101.123 204.167,119.600 211.096 C 120.810 211.549,123.240 212.467,125.000 213.135 C 128.194 214.347,139.970 218.087,143.000 218.851 C 143.880 219.074,145.410 219.510,146.400 219.822 C 147.390 220.134,149.370 220.648,150.800 220.965 C 152.230 221.282,154.570 221.823,156.000 222.165 C 157.430 222.508,159.860 223.072,161.400 223.418 C 164.926 224.210,166.451 224.794,166.171 225.246 C 165.811 225.829,143.271 225.636,135.000 224.979 C 119.359 223.737,113.665 223.150,110.200 222.422 C 109.100 222.191,106.670 221.723,104.800 221.383 C 102.930 221.042,100.140 220.516,98.600 220.214 C 95.336 219.572,86.295 217.042,83.400 215.960 C 82.300 215.549,79.600 214.557,77.400 213.756 C 73.543 212.351,65.730 208.705,63.538 207.287 C 62.954 206.909,61.064 205.740,59.338 204.689 C 49.685 198.811,39.955 188.457,35.669 179.502 C 27.126 161.653,31.163 144.231,46.961 130.778 C 52.281 126.248,53.084 125.600,53.377 125.600 C 53.530 125.600,54.409 125.082,55.330 124.448 C 56.920 123.354,57.812 122.824,62.000 120.479 C 64.593 119.028,64.607 119.021,69.085 117.023 C 71.331 116.020,73.352 115.200,73.575 115.200 C 73.798 115.200,75.159 114.660,76.600 114.000 C 78.041 113.340,79.424 112.800,79.674 112.800 C 79.924 112.800,81.675 112.272,83.564 111.626 C 90.350 109.306,96.038 107.839,106.000 105.840 C 116.721 103.688,125.494 102.562,142.200 101.195 C 147.316 100.776,152.092 100.317,158.800 99.601 C 160.670 99.401,164.540 99.043,167.400 98.806 C 180.249 97.737,205.712 94.688,214.200 93.202 C 215.300 93.009,218.090 92.554,220.400 92.190 C 224.773 91.502,225.705 91.331,231.000 90.250 C 232.760 89.891,235.280 89.390,236.600 89.139 C 237.920 88.887,240.890 88.252,243.200 87.729 C 245.510 87.206,248.210 86.607,249.200 86.399 C 250.190 86.191,252.350 85.669,254.000 85.240 C 255.650 84.812,258.800 83.995,261.000 83.426 C 268.278 81.544,277.594 78.412,288.000 74.350 C 295.057 71.596,299.110 69.686,307.279 65.265 C 321.486 57.578,330.658 50.441,340.556 39.372 C 343.600 35.967,349.600 27.684,349.600 26.886 C 349.600 26.687,349.960 26.198,350.400 25.800 C 350.840 25.402,351.204 24.879,351.209 24.638 C 351.214 24.397,352.114 22.418,353.209 20.240 C 354.304 18.062,355.200 16.126,355.200 15.936 C 355.200 15.746,355.545 14.828,355.967 13.896 C 356.599 12.498,357.495 9.997,358.629 6.467 C 358.927 5.539,359.767 6.207,360.091 7.630 M270.200 174.781 C 275.480 175.231,280.880 175.778,282.200 175.996 C 283.520 176.215,286.040 176.580,287.800 176.807 C 299.004 178.257,315.001 182.394,324.400 186.272 C 358.990 200.541,376.480 228.798,365.642 252.901 C 362.529 259.825,355.061 268.485,348.298 273.015 C 347.144 273.788,345.300 275.022,344.200 275.758 C 334.713 282.104,320.775 287.634,303.360 291.961 C 294.821 294.083,293.382 294.396,290.371 294.792 C 288.737 295.006,286.320 295.372,285.000 295.603 C 282.223 296.091,275.311 296.976,266.400 297.987 C 262.900 298.384,253.201 299.280,244.400 300.019 C 212.575 302.692,179.931 307.170,160.000 311.597 C 159.230 311.768,156.390 312.386,153.689 312.971 C 132.690 317.517,111.802 324.719,96.178 332.800 C 86.856 337.622,79.943 341.894,76.299 345.085 C 75.473 345.808,74.663 346.401,74.499 346.402 C 74.334 346.403,73.558 346.988,72.773 347.702 C 71.988 348.416,70.188 350.013,68.773 351.251 C 65.738 353.907,60.674 359.059,58.601 361.600 C 57.793 362.590,56.747 363.850,56.275 364.400 C 51.789 369.632,45.705 380.996,43.079 389.049 C 41.009 395.400,40.499 395.649,39.499 390.800 C 33.674 362.560,48.181 331.145,78.197 307.000 C 84.741 301.736,98.426 292.350,102.000 290.674 C 102.330 290.520,103.230 290.011,104.000 289.544 C 109.442 286.242,129.848 276.000,130.984 276.000 C 131.072 276.000,132.282 275.476,133.672 274.835 C 136.905 273.344,144.639 270.191,148.000 268.993 C 149.430 268.484,152.850 267.227,155.600 266.201 C 166.391 262.176,179.845 257.895,187.800 255.956 C 189.560 255.527,191.720 254.913,192.600 254.591 C 193.480 254.269,196.630 253.362,199.600 252.575 C 202.570 251.788,205.630 250.976,206.400 250.771 C 207.170 250.566,210.230 249.856,213.200 249.193 C 227.573 245.987,250.236 240.408,256.200 238.608 C 286.843 229.358,301.170 222.103,305.187 213.800 C 308.572 206.802,300.985 197.958,286.000 191.435 C 284.570 190.813,282.860 190.068,282.200 189.780 C 277.063 187.540,264.284 183.124,257.400 181.212 C 251.661 179.617,239.684 176.655,237.000 176.166 C 232.196 175.291,231.849 175.191,232.242 174.799 C 233.525 173.522,255.304 173.511,270.200 174.781 " stroke="none" fill="#040404" fill-rule="evenodd"></path><path id="path2" d="M358.968 11.384 C 358.793 11.815,358.266 12.535,357.797 12.984 C 357.327 13.433,356.603 14.880,356.188 16.200 C 355.772 17.520,354.949 19.410,354.358 20.400 C 353.768 21.390,353.166 22.763,353.021 23.451 C 352.877 24.139,352.327 25.286,351.800 26.000 C 351.273 26.714,350.731 27.802,350.596 28.418 C 350.353 29.524,349.676 30.362,347.301 32.495 C 346.493 33.221,345.921 34.260,345.606 35.577 C 345.223 37.173,344.860 37.722,343.758 38.372 C 343.005 38.816,342.222 39.615,342.020 40.146 C 341.818 40.677,340.838 41.698,339.841 42.413 C 338.845 43.129,337.532 44.432,336.924 45.309 C 336.316 46.187,335.154 47.324,334.341 47.837 C 333.528 48.350,332.748 49.133,332.607 49.577 C 332.466 50.021,331.570 50.730,330.615 51.152 C 329.635 51.585,328.763 52.285,328.613 52.759 C 328.467 53.220,327.504 54.084,326.473 54.679 C 325.443 55.274,323.430 56.780,322.000 58.026 C 320.570 59.272,318.891 60.413,318.268 60.561 C 317.646 60.710,316.407 61.532,315.515 62.389 C 314.445 63.418,313.372 64.036,312.360 64.207 C 311.517 64.349,310.177 64.982,309.383 65.613 C 308.589 66.244,306.996 67.035,305.844 67.370 C 304.692 67.705,303.220 68.449,302.574 69.023 C 301.138 70.299,298.288 71.600,296.927 71.600 C 296.335 71.600,295.480 72.073,294.848 72.749 C 294.257 73.381,293.150 74.032,292.387 74.196 C 291.624 74.360,289.920 74.989,288.600 75.594 C 287.280 76.199,285.210 76.817,284.000 76.967 C 282.635 77.137,281.572 77.514,281.200 77.960 C 280.528 78.765,274.030 80.986,271.089 81.415 C 269.891 81.590,269.038 81.955,268.803 82.394 C 268.562 82.845,267.728 83.186,266.451 83.355 C 265.363 83.500,263.439 83.974,262.174 84.409 C 260.909 84.844,259.313 85.200,258.626 85.200 C 257.940 85.200,256.951 85.499,256.428 85.865 C 255.906 86.231,254.111 86.774,252.439 87.073 C 246.893 88.063,244.212 88.652,243.074 89.128 C 242.455 89.388,241.263 89.600,240.426 89.600 C 238.069 89.600,232.053 90.747,231.077 91.383 C 230.117 92.008,229.678 92.107,223.800 93.033 C 221.600 93.380,218.900 93.824,217.800 94.021 C 214.077 94.687,205.032 95.973,198.400 96.780 C 194.770 97.221,191.423 97.661,190.962 97.756 C 190.502 97.852,188.432 98.039,186.362 98.172 C 184.293 98.305,181.610 98.578,180.400 98.779 C 179.190 98.980,175.680 99.350,172.600 99.600 C 169.520 99.851,164.390 100.307,161.200 100.613 C 158.010 100.920,153.972 101.171,152.227 101.171 C 149.268 101.172,145.400 101.599,141.243 102.384 C 140.276 102.566,137.166 102.743,134.330 102.777 C 130.446 102.824,128.018 103.094,124.487 103.872 C 119.531 104.963,117.377 105.328,112.200 105.954 C 106.620 106.629,103.534 107.214,102.370 107.816 C 101.748 108.137,100.940 108.400,100.573 108.400 C 99.421 108.400,88.327 111.240,86.216 112.076 C 85.107 112.514,82.683 113.206,80.829 113.612 C 78.969 114.021,77.314 114.611,77.135 114.930 C 76.957 115.248,76.191 115.625,75.432 115.768 C 74.674 115.910,73.043 116.635,71.808 117.378 C 70.520 118.154,68.727 118.845,67.601 119.000 C 66.508 119.150,65.055 119.701,64.320 120.244 C 61.818 122.090,58.702 124.010,55.522 125.665 C 53.768 126.577,52.116 127.521,51.850 127.762 C 51.584 128.003,51.020 128.396,50.596 128.635 C 50.172 128.875,49.538 129.595,49.186 130.235 C 48.834 130.876,47.651 132.023,46.556 132.783 C 45.462 133.544,43.944 135.062,43.183 136.156 C 42.423 137.251,41.260 138.440,40.600 138.799 C 39.473 139.412,37.230 142.791,37.209 143.907 C 37.204 144.186,36.481 145.597,35.603 147.043 C 32.974 151.370,32.613 153.126,32.606 161.610 L 32.600 169.020 33.975 171.810 C 34.731 173.344,35.548 175.590,35.791 176.800 C 36.141 178.552,36.444 179.103,37.279 179.504 C 38.122 179.910,38.378 180.386,38.593 181.952 C 38.828 183.655,39.147 184.165,41.178 186.082 C 42.567 187.393,43.689 188.858,43.981 189.741 C 44.286 190.666,44.892 191.434,45.609 191.805 C 46.238 192.130,47.060 192.916,47.435 193.552 C 47.811 194.188,48.714 194.992,49.441 195.339 C 50.169 195.686,51.033 196.491,51.362 197.127 C 51.744 197.865,52.657 198.586,53.880 199.114 C 54.936 199.570,56.250 200.515,56.800 201.215 C 58.668 203.590,59.540 204.198,61.666 204.607 C 63.266 204.915,63.899 205.247,64.259 205.967 C 64.520 206.491,65.604 207.348,66.667 207.871 C 70.567 209.788,74.856 211.600,75.494 211.600 C 75.854 211.600,76.520 211.931,76.974 212.336 C 77.428 212.741,78.880 213.298,80.200 213.574 C 81.520 213.850,84.017 214.709,85.748 215.482 C 87.479 216.255,90.089 217.062,91.548 217.275 C 93.007 217.487,95.550 218.084,97.200 218.600 C 98.850 219.116,102.068 219.744,104.350 219.995 C 106.633 220.246,109.392 220.803,110.482 221.232 C 112.494 222.025,116.244 222.453,127.800 223.209 C 131.100 223.425,135.870 223.760,138.400 223.953 C 140.930 224.147,145.245 224.342,147.989 224.386 C 150.732 224.430,153.283 224.630,153.656 224.830 C 154.030 225.030,155.165 225.080,156.179 224.941 C 159.314 224.511,159.006 223.457,155.600 222.961 C 154.610 222.817,153.582 222.525,153.315 222.313 C 153.048 222.101,150.264 221.486,147.127 220.946 C 143.920 220.395,141.137 219.705,140.768 219.371 C 140.407 219.044,138.602 218.494,136.756 218.148 C 134.910 217.801,132.950 217.269,132.400 216.964 C 131.118 216.255,128.347 215.273,125.800 214.626 C 124.700 214.346,122.510 213.551,120.933 212.859 C 119.356 212.166,117.682 211.600,117.214 211.600 C 116.745 211.600,115.965 211.173,115.481 210.651 C 114.945 210.073,113.445 209.375,111.650 208.867 C 108.904 208.091,108.199 207.699,106.350 205.922 C 105.962 205.550,105.026 205.129,104.270 204.987 C 103.371 204.818,102.749 204.406,102.469 203.793 C 102.235 203.278,101.235 202.499,100.248 202.062 C 99.092 201.551,98.104 200.722,97.472 199.734 C 96.932 198.890,95.914 197.660,95.210 197.000 C 92.027 194.019,91.382 182.800,94.393 182.800 C 94.598 182.800,95.820 181.765,97.109 180.500 C 101.661 176.033,102.731 175.175,104.510 174.569 C 105.498 174.232,107.003 173.363,107.853 172.637 C 110.342 170.514,111.674 169.931,116.800 168.726 C 117.790 168.493,119.320 167.889,120.200 167.383 C 121.080 166.877,122.700 166.336,123.800 166.180 C 126.057 165.861,127.128 165.414,128.000 164.427 C 128.330 164.053,129.728 163.527,131.106 163.257 C 132.484 162.987,134.208 162.414,134.938 161.984 C 135.667 161.553,137.060 161.038,138.032 160.839 C 139.004 160.640,140.340 160.294,141.000 160.071 C 142.592 159.532,145.104 158.920,149.000 158.122 C 150.760 157.762,152.932 157.137,153.826 156.734 C 154.721 156.330,155.855 156.000,156.348 156.000 C 156.840 156.000,159.348 155.437,161.921 154.750 C 164.495 154.062,167.681 153.355,169.002 153.177 C 170.324 153.000,171.944 152.641,172.602 152.379 C 173.830 151.892,177.546 151.084,181.798 150.381 C 183.116 150.163,185.148 149.628,186.313 149.192 C 187.477 148.757,188.882 148.400,189.435 148.400 C 189.988 148.400,190.926 148.153,191.520 147.852 C 192.114 147.551,193.442 147.181,194.471 147.032 C 195.501 146.882,197.341 146.409,198.561 145.980 C 199.782 145.551,201.477 145.200,202.328 145.200 C 203.330 145.200,204.114 144.937,204.551 144.455 C 204.974 143.987,206.002 143.628,207.313 143.490 C 209.567 143.254,214.988 141.851,217.114 140.954 C 217.836 140.649,218.916 140.400,219.514 140.400 C 220.111 140.400,221.770 139.842,223.200 139.160 C 224.630 138.478,226.700 137.778,227.800 137.604 C 229.985 137.259,231.475 136.769,234.742 135.320 C 235.920 134.798,238.242 134.111,239.902 133.793 C 241.562 133.475,243.208 132.963,243.560 132.655 C 243.912 132.347,244.650 131.962,245.200 131.799 C 245.750 131.637,247.245 131.069,248.523 130.537 C 249.800 130.006,251.749 129.399,252.854 129.190 C 253.959 128.980,255.323 128.447,255.885 128.004 C 256.448 127.562,257.183 127.200,257.519 127.200 C 257.855 127.200,258.956 126.671,259.965 126.025 C 260.974 125.379,263.133 124.549,264.762 124.179 C 266.718 123.736,268.011 123.198,268.571 122.594 C 269.037 122.091,270.143 121.485,271.030 121.246 C 271.917 121.007,273.533 120.177,274.622 119.402 C 275.861 118.520,277.478 117.811,278.950 117.506 C 280.719 117.140,281.400 116.799,281.707 116.126 C 282.004 115.473,282.593 115.160,283.892 114.965 C 284.870 114.819,286.529 114.121,287.579 113.414 C 288.629 112.707,291.268 111.174,293.444 110.006 C 295.620 108.839,298.120 107.388,299.000 106.783 C 301.900 104.789,305.209 102.800,305.626 102.800 C 305.852 102.800,306.486 102.351,307.035 101.802 C 307.584 101.253,309.057 100.148,310.309 99.348 C 311.561 98.547,313.398 97.210,314.393 96.376 C 315.387 95.542,316.996 94.442,317.969 93.930 C 319.265 93.249,319.861 92.631,320.199 91.618 C 320.548 90.571,320.964 90.157,321.915 89.910 C 322.632 89.724,323.634 88.978,324.248 88.172 C 324.840 87.396,326.081 86.318,327.004 85.776 C 327.928 85.235,330.195 83.138,332.042 81.117 C 333.889 79.095,335.805 77.051,336.300 76.575 C 336.795 76.098,337.200 75.526,337.200 75.302 C 337.200 75.079,338.009 74.233,338.998 73.423 C 339.987 72.613,341.264 71.151,341.836 70.175 C 342.408 69.199,343.385 68.038,344.007 67.595 C 344.630 67.152,345.257 66.252,345.401 65.595 C 345.545 64.938,346.042 64.136,346.504 63.812 C 346.967 63.488,347.751 62.227,348.246 61.009 C 348.741 59.791,349.703 57.971,350.382 56.965 C 351.061 55.958,351.994 54.384,352.455 53.467 C 352.916 52.550,353.526 51.530,353.812 51.200 C 354.097 50.870,354.525 49.536,354.763 48.235 C 355.002 46.935,355.744 44.901,356.412 43.717 C 357.604 41.605,358.280 39.186,358.680 35.600 C 358.791 34.610,359.149 32.810,359.476 31.600 C 360.888 26.378,360.421 7.802,358.968 11.384 M258.900 174.676 C 259.285 174.776,259.915 174.776,260.300 174.676 C 260.685 174.575,260.370 174.493,259.600 174.493 C 258.830 174.493,258.515 174.575,258.900 174.676 M264.705 175.083 C 265.202 175.179,265.922 175.175,266.305 175.075 C 266.687 174.975,266.280 174.896,265.400 174.901 C 264.520 174.905,264.207 174.987,264.705 175.083 M302.012 201.075 C 302.995 202.216,304.210 203.656,304.711 204.275 C 305.212 204.894,305.092 204.590,304.443 203.600 C 303.795 202.610,302.580 201.170,301.744 200.400 C 300.304 199.074,300.318 199.110,302.012 201.075 M367.444 230.600 C 367.773 232.071,368.002 232.390,367.994 231.367 C 367.991 230.945,367.805 230.330,367.582 230.000 C 367.285 229.562,367.248 229.724,367.444 230.600 M291.000 294.000 C 289.922 294.274,289.902 294.306,290.800 294.313 C 291.350 294.317,292.250 294.176,292.800 294.000 C 294.144 293.569,292.692 293.569,291.000 294.000 M253.505 298.683 C 254.002 298.779,254.722 298.775,255.105 298.675 C 255.487 298.575,255.080 298.496,254.200 298.501 C 253.320 298.505,253.007 298.587,253.505 298.683 M240.100 299.876 C 240.485 299.976,241.115 299.976,241.500 299.876 C 241.885 299.775,241.570 299.693,240.800 299.693 C 240.030 299.693,239.715 299.775,240.100 299.876 M64.895 319.866 C 64.618 319.978,64.203 320.459,63.973 320.935 C 63.616 321.676,63.633 321.714,64.096 321.200 C 64.393 320.870,64.889 320.375,65.198 320.100 C 65.787 319.576,65.729 319.531,64.895 319.866 M68.581 350.500 L 67.000 352.200 68.700 350.619 C 70.281 349.148,70.584 348.800,70.281 348.800 C 70.216 348.800,69.451 349.565,68.581 350.500 M61.781 356.900 L 60.200 358.600 61.900 357.019 C 63.481 355.548,63.784 355.200,63.481 355.200 C 63.416 355.200,62.651 355.965,61.781 356.900 M38.493 374.000 C 38.493 374.770,38.575 375.085,38.676 374.700 C 38.776 374.315,38.776 373.685,38.676 373.300 C 38.575 372.915,38.493 373.230,38.493 374.000 " stroke="none" fill="#295c87" fill-rule="evenodd"></path><path id="path3" d="M358.629 6.467 C 357.495 9.997,356.599 12.498,355.967 13.896 C 355.545 14.828,355.200 15.746,355.200 15.936 C 355.200 16.126,354.304 18.062,353.209 20.240 C 352.114 22.418,351.214 24.397,351.209 24.638 C 351.204 24.879,350.840 25.402,350.400 25.800 C 349.960 26.198,349.600 26.687,349.600 26.886 C 349.600 27.684,343.600 35.967,340.556 39.372 C 330.658 50.441,321.486 57.578,307.279 65.265 C 299.110 69.686,295.057 71.596,288.000 74.350 C 277.594 78.412,268.278 81.544,261.000 83.426 C 258.800 83.995,255.650 84.812,254.000 85.240 C 252.350 85.669,250.190 86.191,249.200 86.399 C 248.210 86.607,245.510 87.206,243.200 87.729 C 240.890 88.252,237.920 88.887,236.600 89.139 C 235.280 89.390,232.760 89.891,231.000 90.250 C 225.705 91.331,224.773 91.502,220.400 92.190 C 218.090 92.554,215.300 93.009,214.200 93.202 C 205.712 94.688,180.249 97.737,167.400 98.806 C 164.540 99.043,160.670 99.401,158.800 99.601 C 152.092 100.317,147.316 100.776,142.200 101.195 C 125.494 102.562,116.721 103.688,106.000 105.840 C 96.038 107.839,90.350 109.306,83.564 111.626 C 81.675 112.272,79.924 112.800,79.674 112.800 C 79.424 112.800,78.041 113.340,76.600 114.000 C 75.159 114.660,73.798 115.200,73.575 115.200 C 73.352 115.200,71.331 116.020,69.085 117.023 C 64.607 119.021,64.593 119.028,62.000 120.479 C 57.812 122.824,56.920 123.354,55.330 124.448 C 54.409 125.082,53.530 125.600,53.377 125.600 C 53.084 125.600,52.281 126.248,46.961 130.778 C 31.163 144.231,27.126 161.653,35.669 179.502 C 39.955 188.457,49.685 198.811,59.338 204.689 C 61.064 205.740,62.954 206.909,63.538 207.287 C 65.730 208.705,73.543 212.351,77.400 213.756 C 79.600 214.557,82.300 215.549,83.400 215.960 C 86.295 217.042,95.336 219.572,98.600 220.214 C 100.140 220.516,102.930 221.042,104.800 221.383 C 106.670 221.723,109.100 222.191,110.200 222.422 C 113.665 223.150,119.359 223.737,135.000 224.979 C 143.271 225.636,165.811 225.829,166.171 225.246 C 166.451 224.794,164.926 224.210,161.400 223.418 C 159.860 223.072,157.430 222.508,156.000 222.165 C 154.570 221.823,152.230 221.282,150.800 220.965 C 149.370 220.648,147.390 220.134,146.400 219.822 C 145.410 219.510,143.880 219.074,143.000 218.851 C 139.970 218.087,128.194 214.347,125.000 213.135 C 123.240 212.467,120.810 211.549,119.600 211.096 C 101.123 204.167,90.759 193.877,94.292 185.969 C 95.189 183.961,98.856 179.798,100.458 178.970 C 101.044 178.667,101.770 178.173,102.071 177.872 C 103.415 176.528,116.405 169.600,117.580 169.600 C 117.817 169.600,118.323 169.441,118.705 169.247 C 120.957 168.101,126.445 166.058,130.800 164.744 C 132.230 164.313,133.760 163.801,134.200 163.606 C 134.640 163.412,135.720 163.036,136.600 162.771 C 137.480 162.505,138.650 162.139,139.200 161.956 C 139.750 161.773,143.080 160.889,146.600 159.992 C 150.120 159.095,153.540 158.192,154.200 157.986 C 156.201 157.362,169.947 154.067,174.000 153.240 C 177.457 152.535,180.602 151.797,184.400 150.800 C 185.170 150.598,188.140 149.869,191.000 149.180 C 193.860 148.490,196.740 147.767,197.400 147.573 C 198.060 147.379,199.680 146.958,201.000 146.638 C 202.320 146.318,204.390 145.786,205.600 145.456 C 206.810 145.126,209.870 144.300,212.400 143.621 C 214.930 142.941,217.360 142.211,217.800 141.998 C 218.240 141.785,219.590 141.352,220.800 141.037 C 223.929 140.222,233.714 137.112,235.400 136.397 C 235.840 136.210,237.460 135.664,239.000 135.182 C 240.540 134.700,243.690 133.593,246.000 132.721 C 248.310 131.849,251.190 130.775,252.400 130.334 C 253.610 129.893,255.050 129.301,255.600 129.018 C 256.150 128.736,257.590 128.184,258.800 127.793 C 261.244 127.003,265.937 125.033,270.200 123.007 C 276.493 120.017,287.941 114.329,290.000 113.168 C 301.628 106.614,306.432 103.583,314.400 97.775 C 327.686 88.088,340.350 75.583,346.275 66.297 C 346.871 65.364,347.638 64.266,347.979 63.858 C 349.290 62.292,356.000 49.504,356.000 48.573 C 356.000 48.405,356.517 46.903,357.148 45.234 C 359.697 38.497,361.589 28.354,361.596 21.385 C 361.605 13.750,359.572 3.531,358.629 6.467 M360.038 11.200 C 361.351 18.213,360.684 29.763,358.446 38.800 C 357.189 43.873,352.391 55.874,351.248 56.802 C 351.112 56.913,350.387 58.173,349.638 59.602 C 348.888 61.031,348.168 62.290,348.038 62.400 C 347.907 62.510,347.620 62.888,347.400 63.240 C 340.589 74.141,328.646 86.363,315.000 96.397 C 312.800 98.015,309.965 100.117,308.699 101.069 C 307.434 102.021,306.219 102.800,305.999 102.800 C 305.780 102.800,305.600 102.944,305.600 103.120 C 305.600 103.296,304.835 103.836,303.900 104.319 C 301.715 105.447,299.744 106.587,299.104 107.094 C 298.827 107.313,297.745 107.967,296.700 108.546 C 293.403 110.375,291.100 111.680,289.221 112.785 C 288.219 113.374,286.230 114.442,284.800 115.158 C 283.370 115.873,281.930 116.627,281.600 116.832 C 281.022 117.191,274.547 120.235,270.000 122.285 C 268.790 122.831,265.460 124.255,262.600 125.451 C 259.740 126.646,256.590 127.963,255.600 128.378 C 254.610 128.793,252.720 129.524,251.400 130.004 C 250.080 130.483,248.121 131.219,247.047 131.638 C 245.972 132.057,244.793 132.400,244.427 132.400 C 244.060 132.400,243.589 132.562,243.380 132.759 C 243.171 132.957,241.200 133.693,239.000 134.396 C 236.800 135.099,234.680 135.842,234.289 136.047 C 233.897 136.253,231.467 137.053,228.889 137.825 C 226.310 138.596,223.390 139.486,222.400 139.802 C 217.352 141.412,214.858 142.154,210.341 143.387 C 207.624 144.130,204.320 145.034,203.000 145.397 C 201.680 145.760,199.160 146.416,197.400 146.854 C 195.640 147.293,192.917 147.998,191.348 148.422 C 188.660 149.148,185.026 150.015,181.400 150.796 C 180.520 150.986,178.270 151.518,176.400 151.979 C 174.530 152.440,172.067 152.982,170.926 153.183 C 168.206 153.664,163.854 154.712,161.600 155.429 C 160.610 155.744,157.100 156.630,153.800 157.398 C 150.500 158.167,146.540 159.163,145.000 159.612 C 143.460 160.061,141.480 160.623,140.600 160.860 C 139.720 161.097,138.640 161.446,138.200 161.636 C 137.760 161.825,135.420 162.549,133.000 163.245 C 130.580 163.941,128.150 164.737,127.600 165.013 C 127.050 165.289,125.208 165.982,123.506 166.553 C 121.804 167.123,119.644 167.933,118.706 168.351 C 117.768 168.769,116.190 169.416,115.200 169.787 C 112.776 170.697,104.512 175.041,102.927 176.238 C 102.226 176.767,101.482 177.200,101.272 177.200 C 101.063 177.200,99.436 178.595,97.657 180.300 C 89.548 188.073,91.857 196.667,104.088 204.233 C 107.828 206.546,112.022 208.615,119.400 211.785 C 121.984 212.895,130.840 215.984,135.400 217.366 C 138.040 218.166,140.513 218.996,140.895 219.210 C 141.277 219.425,141.907 219.599,142.295 219.597 C 143.073 219.594,149.927 221.224,154.000 222.381 C 155.430 222.787,158.040 223.452,159.800 223.860 L 163.000 224.600 160.000 224.836 C 156.442 225.116,138.140 224.594,131.600 224.026 C 129.070 223.806,124.570 223.419,121.600 223.166 C 112.235 222.368,95.191 218.982,86.206 216.135 C 79.884 214.132,79.575 214.022,76.200 212.584 C 69.240 209.618,68.932 209.462,61.095 204.962 C 55.419 201.702,47.163 194.592,43.334 189.665 C 39.265 184.432,38.463 183.264,37.104 180.600 C 32.992 172.537,32.200 169.370,32.200 161.000 C 32.200 153.724,32.481 152.562,36.097 144.900 C 40.502 135.563,53.442 124.768,67.600 118.618 C 69.910 117.614,72.340 116.528,73.000 116.203 C 77.785 113.848,90.284 109.966,99.600 107.942 C 101.690 107.488,104.120 106.953,105.000 106.753 C 106.763 106.353,108.161 106.111,117.000 104.669 C 123.920 103.540,128.422 102.999,136.000 102.387 C 138.970 102.147,143.920 101.701,147.000 101.396 C 150.080 101.091,154.220 100.736,156.200 100.608 C 158.180 100.480,161.150 100.206,162.800 100.000 C 164.450 99.794,167.780 99.444,170.200 99.222 C 176.885 98.608,189.828 97.263,193.200 96.832 C 194.850 96.621,197.820 96.242,199.800 95.990 C 201.780 95.738,205.200 95.249,207.400 94.904 C 209.600 94.558,212.480 94.140,213.800 93.975 C 216.904 93.585,220.782 92.967,223.800 92.380 C 225.120 92.124,227.100 91.766,228.200 91.585 C 229.300 91.404,230.920 91.080,231.800 90.865 C 232.680 90.651,235.200 90.116,237.400 89.677 C 243.675 88.425,250.882 86.830,252.228 86.396 C 252.904 86.178,253.770 86.000,254.153 86.000 C 254.536 86.000,255.694 85.743,256.725 85.428 C 257.756 85.113,259.680 84.555,261.000 84.187 C 262.320 83.820,265.664 82.817,268.431 81.959 C 271.197 81.102,273.675 80.400,273.936 80.400 C 274.197 80.400,274.723 80.238,275.105 80.041 C 275.860 79.651,277.463 79.023,281.800 77.416 C 283.340 76.846,285.503 76.024,286.608 75.590 C 287.712 75.155,288.916 74.800,289.284 74.800 C 289.652 74.800,290.056 74.633,290.182 74.429 C 290.308 74.225,291.084 73.837,291.906 73.565 C 293.392 73.075,301.254 69.514,302.400 68.812 C 302.730 68.610,304.530 67.647,306.400 66.672 C 308.270 65.698,310.753 64.338,311.918 63.650 C 313.082 62.963,314.114 62.400,314.211 62.400 C 314.436 62.400,319.647 58.857,323.937 55.788 C 332.588 49.598,343.268 38.432,348.414 30.200 C 349.377 28.660,350.287 27.310,350.436 27.200 C 350.681 27.020,354.555 19.103,356.111 15.600 C 356.454 14.830,357.233 12.714,357.844 10.897 C 359.121 7.101,359.275 7.122,360.038 11.200 M237.400 174.001 C 236.080 174.129,241.373 174.269,249.161 174.312 C 256.950 174.354,263.235 174.301,263.127 174.194 C 262.835 173.901,240.176 173.731,237.400 174.001 M232.218 174.771 C 231.951 175.203,232.697 175.453,235.200 175.769 C 236.468 175.930,236.764 175.888,236.200 175.627 C 235.760 175.423,234.894 175.244,234.276 175.228 C 233.635 175.212,233.259 175.028,233.400 174.800 C 233.536 174.580,233.377 174.400,233.047 174.400 C 232.717 174.400,232.344 174.567,232.218 174.771 M265.400 174.796 C 267.436 175.136,272.670 175.325,272.367 175.047 C 272.275 174.964,270.220 174.797,267.800 174.678 C 264.782 174.530,264.028 174.567,265.400 174.796 M277.200 175.830 C 279.510 176.115,282.570 176.443,284.000 176.558 L 286.600 176.767 284.400 176.385 C 280.749 175.750,275.886 175.203,274.400 175.259 C 273.630 175.288,274.890 175.545,277.200 175.830 M237.233 176.144 C 237.325 176.224,238.210 176.396,239.200 176.527 C 240.402 176.686,240.734 176.647,240.200 176.410 C 239.436 176.072,236.886 175.843,237.233 176.144 M241.233 176.944 C 241.325 177.023,241.940 177.208,242.600 177.356 C 243.476 177.552,243.638 177.515,243.200 177.218 C 242.660 176.853,240.832 176.598,241.233 176.944 M288.400 177.200 C 288.950 177.376,290.030 177.517,290.800 177.514 L 292.200 177.508 290.600 177.177 C 288.463 176.735,286.996 176.750,288.400 177.200 M244.400 177.704 C 244.510 177.818,246.940 178.490,249.800 179.198 C 252.660 179.906,255.771 180.736,256.714 181.043 C 257.657 181.349,258.632 181.600,258.881 181.600 C 259.676 181.600,258.908 181.141,257.532 180.794 C 256.799 180.610,254.040 179.888,251.400 179.190 C 246.290 177.839,244.075 177.369,244.400 177.704 M293.000 178.000 C 293.440 178.189,294.340 178.335,295.000 178.325 L 296.200 178.305 295.000 178.000 C 294.340 177.832,293.440 177.686,293.000 177.675 L 292.200 177.656 293.000 178.000 M296.845 178.575 C 297.063 178.795,298.390 179.080,302.600 179.806 C 303.376 179.940,303.207 179.816,302.122 179.455 C 300.216 178.821,296.474 178.197,296.845 178.575 M304.600 180.370 C 306.277 181.053,308.287 181.599,309.028 181.573 C 309.453 181.559,309.072 181.318,308.182 181.040 C 306.186 180.414,303.455 179.904,304.600 180.370 M266.400 183.969 C 272.573 185.997,278.467 188.166,282.200 189.784 C 282.860 190.070,284.570 190.813,286.000 191.435 C 296.391 195.959,303.313 201.651,305.654 207.600 C 306.044 208.590,306.371 209.107,306.381 208.749 C 306.509 204.297,298.171 196.607,288.300 192.073 C 281.056 188.745,277.562 187.316,272.800 185.733 C 271.150 185.185,269.440 184.583,269.000 184.395 C 268.560 184.207,267.570 183.861,266.800 183.626 C 266.030 183.391,264.245 182.839,262.834 182.400 C 261.423 181.960,260.073 181.616,259.834 181.635 C 259.595 181.653,262.550 182.704,266.400 183.969 M310.600 181.952 C 311.040 182.147,313.740 183.055,316.600 183.970 C 319.460 184.884,322.160 185.783,322.600 185.967 C 325.055 186.991,325.719 187.214,325.869 187.064 C 326.250 186.684,314.117 182.378,311.156 181.843 C 310.195 181.670,310.033 181.701,310.600 181.952 M326.600 187.600 C 326.736 187.820,327.014 188.000,327.217 188.000 C 327.547 188.000,328.984 188.676,333.600 191.004 C 343.554 196.023,361.600 212.027,361.600 215.836 C 361.600 215.957,362.140 216.841,362.800 217.800 C 363.460 218.759,364.000 219.641,364.000 219.760 C 364.000 219.879,364.425 220.927,364.944 222.088 C 365.845 224.103,366.504 226.014,367.672 230.000 C 369.083 234.812,367.932 248.728,365.937 250.980 C 365.751 251.189,365.603 251.639,365.606 251.980 C 365.617 253.122,366.341 251.605,367.503 248.000 C 368.917 243.616,369.094 232.782,367.819 228.600 C 362.957 212.646,350.262 198.945,331.724 189.646 C 326.702 187.126,326.178 186.917,326.600 187.600 M306.032 211.504 C 305.777 215.571,298.718 221.921,289.382 226.483 C 287.080 227.608,285.264 228.598,285.348 228.682 C 285.546 228.879,293.077 225.214,294.621 224.169 C 295.270 223.730,296.331 223.108,296.980 222.786 C 300.253 221.161,306.905 213.111,306.277 211.535 C 306.118 211.137,306.055 211.129,306.032 211.504 M283.600 229.171 C 281.256 230.527,264.928 236.147,256.861 238.375 C 255.905 238.639,255.210 238.943,255.317 239.050 C 255.424 239.157,257.107 238.769,259.056 238.187 C 261.005 237.605,263.140 236.987,263.800 236.813 C 267.959 235.718,283.777 229.882,284.580 229.148 C 285.078 228.692,284.400 228.709,283.600 229.171 M253.000 239.471 C 250.385 240.052,243.193 242.126,243.327 242.260 C 243.414 242.348,244.547 242.131,245.843 241.778 C 247.139 241.425,249.640 240.775,251.400 240.333 C 255.052 239.416,256.322 238.732,253.000 239.471 M240.600 242.800 C 239.511 243.077,239.493 243.107,240.400 243.125 C 240.950 243.135,241.760 242.989,242.200 242.800 C 243.186 242.376,242.266 242.376,240.600 242.800 M235.400 243.987 C 233.860 244.383,232.912 244.729,233.294 244.754 C 234.070 244.805,237.369 244.074,238.600 243.577 C 239.986 243.018,238.345 243.228,235.400 243.987 M226.800 246.037 C 224.490 246.667,223.230 247.116,224.000 247.033 C 225.487 246.874,232.085 245.243,232.367 244.965 C 232.761 244.575,230.714 244.969,226.800 246.037 M220.400 247.600 L 219.400 247.920 220.400 247.954 C 220.950 247.973,221.670 247.813,222.000 247.600 C 222.764 247.106,221.942 247.106,220.400 247.600 M214.800 248.800 C 213.150 249.197,212.250 249.530,212.800 249.539 C 213.350 249.549,215.060 249.222,216.600 248.813 C 220.194 247.860,218.749 247.849,214.800 248.800 M207.800 250.405 C 206.260 250.812,204.460 251.323,203.800 251.539 L 202.600 251.931 203.676 251.966 C 204.268 251.985,204.852 251.840,204.973 251.644 C 205.094 251.449,205.779 251.192,206.496 251.073 C 208.889 250.678,211.229 250.104,211.483 249.851 C 211.885 249.448,210.796 249.612,207.800 250.405 M198.600 252.841 C 193.137 254.326,191.517 254.850,191.728 255.061 C 191.845 255.178,193.259 254.885,194.871 254.409 C 196.482 253.933,198.520 253.357,199.400 253.129 C 200.280 252.901,201.360 252.566,201.800 252.385 C 203.200 251.806,201.528 252.045,198.600 252.841 M364.545 254.268 C 362.139 259.363,356.880 265.620,351.175 270.176 C 347.477 273.129,346.607 273.971,348.334 272.924 C 354.204 269.368,366.984 254.451,365.464 252.930 C 365.356 252.823,364.943 253.425,364.545 254.268 M189.200 255.600 C 188.396 255.857,188.357 255.923,189.000 255.932 C 189.440 255.938,190.160 255.789,190.600 255.600 C 191.619 255.162,190.568 255.162,189.200 255.600 M185.800 256.400 C 183.046 257.130,170.922 260.770,170.000 261.144 C 168.255 261.851,170.055 261.631,172.373 260.854 C 173.598 260.443,175.410 259.882,176.400 259.607 C 177.390 259.332,178.650 258.967,179.200 258.795 C 179.750 258.624,181.550 258.091,183.200 257.612 C 187.962 256.228,189.959 255.297,185.800 256.400 M163.278 263.386 C 160.571 264.335,158.231 265.248,158.078 265.415 C 157.626 265.909,168.205 262.329,168.720 261.813 C 169.139 261.394,168.132 261.685,163.278 263.386 M151.400 267.684 C 138.680 272.602,131.475 275.609,131.751 275.884 C 131.834 275.967,132.868 275.593,134.051 275.053 C 136.916 273.745,147.401 269.600,151.400 268.195 C 153.160 267.577,154.771 266.920,154.980 266.735 C 155.637 266.156,154.738 266.394,151.400 267.684 M345.800 274.242 C 345.360 274.581,343.155 275.951,340.900 277.286 C 338.645 278.621,336.800 279.782,336.800 279.867 C 336.800 280.332,345.639 275.117,346.395 274.205 C 347.031 273.440,346.824 273.453,345.800 274.242 M127.769 277.376 C 121.571 280.295,119.573 281.306,119.719 281.452 C 119.802 281.536,122.148 280.523,124.930 279.202 C 127.713 277.881,130.161 276.800,130.371 276.800 C 130.581 276.800,130.864 276.620,131.000 276.400 C 131.389 275.770,130.802 275.947,127.769 277.376 M335.200 280.418 C 334.870 280.622,333.610 281.221,332.400 281.750 C 331.190 282.278,329.300 283.116,328.200 283.612 C 325.812 284.689,320.776 286.551,317.261 287.657 C 315.865 288.097,314.802 288.535,314.899 288.632 C 315.433 289.166,334.844 281.619,336.180 280.358 C 336.682 279.885,335.994 279.927,335.200 280.418 M117.400 282.260 C 112.324 284.917,106.267 288.198,104.600 289.194 C 103.500 289.852,102.330 290.517,102.000 290.673 C 100.125 291.557,88.665 299.090,83.587 302.775 C 74.326 309.496,60.858 322.718,55.855 330.000 C 54.979 331.275,54.818 331.631,55.472 330.846 C 65.506 318.798,73.369 311.056,82.600 304.135 C 86.886 300.921,100.087 292.000,100.557 292.000 C 100.658 292.000,102.224 291.090,104.037 289.977 C 105.850 288.865,107.978 287.625,108.767 287.223 C 117.274 282.885,118.891 282.042,119.096 281.837 C 119.537 281.396,118.607 281.628,117.400 282.260 M309.400 290.009 C 307.200 290.648,305.040 291.180,304.600 291.191 C 304.160 291.203,303.530 291.400,303.200 291.630 C 302.758 291.938,302.968 291.978,304.000 291.782 C 305.730 291.452,314.138 289.155,314.367 288.950 C 314.781 288.578,313.092 288.938,309.400 290.009 M298.200 292.782 C 295.491 293.472,292.405 294.049,287.400 294.800 C 282.598 295.521,281.922 295.655,282.118 295.851 C 282.228 295.961,284.001 295.782,286.059 295.453 C 288.117 295.125,290.610 294.745,291.600 294.610 C 295.058 294.140,303.426 292.049,301.800 292.062 C 301.360 292.066,299.740 292.390,298.200 292.782 M276.600 296.406 C 275.897 296.588,276.642 296.628,278.400 296.503 C 280.050 296.385,281.475 296.224,281.567 296.144 C 281.875 295.878,277.813 296.091,276.600 296.406 M268.800 297.237 C 267.590 297.421,265.550 297.683,264.266 297.819 C 262.983 297.955,262.019 298.152,262.124 298.258 C 262.295 298.429,265.761 298.093,273.000 297.204 L 275.400 296.909 273.200 296.906 C 271.990 296.904,270.010 297.053,268.800 297.237 M254.000 298.819 C 252.958 298.993,253.969 299.030,256.400 298.909 C 258.710 298.794,260.675 298.632,260.767 298.550 C 261.048 298.297,255.911 298.502,254.000 298.819 M244.600 299.618 C 243.500 299.790,241.340 299.956,239.800 299.988 C 238.260 300.020,236.280 300.205,235.400 300.399 C 233.561 300.804,236.721 300.666,245.400 299.962 C 252.153 299.413,252.791 299.309,249.400 299.308 C 247.860 299.307,245.700 299.447,244.600 299.618 M228.000 301.200 L 226.600 301.495 228.000 301.508 C 228.770 301.515,230.390 301.384,231.600 301.217 L 233.800 300.913 231.600 300.909 C 230.390 300.907,228.770 301.038,228.000 301.200 M220.000 302.019 C 219.183 302.202,220.183 302.242,222.400 302.116 C 224.490 301.996,226.275 301.831,226.367 301.749 C 226.670 301.477,221.426 301.699,220.000 302.019 M213.000 302.800 L 211.400 303.086 212.800 303.108 C 213.570 303.120,215.100 302.990,216.200 302.818 L 218.200 302.507 216.400 302.510 C 215.410 302.512,213.880 302.642,213.000 302.800 M205.800 303.596 C 204.920 303.766,202.940 304.050,201.400 304.228 C 199.860 304.407,198.960 304.609,199.400 304.679 C 199.840 304.749,202.720 304.462,205.800 304.042 C 208.933 303.615,210.519 303.281,209.400 303.283 C 208.300 303.286,206.680 303.426,205.800 303.596 M194.200 305.200 C 192.470 305.640,194.357 305.655,196.800 305.220 L 198.600 304.900 197.000 304.897 C 196.120 304.896,194.860 305.032,194.200 305.200 M187.600 306.072 C 183.295 306.789,181.943 307.169,184.600 306.917 C 188.415 306.554,193.272 305.680,191.400 305.694 C 190.520 305.700,188.810 305.870,187.600 306.072 M178.000 307.600 C 177.450 307.785,176.129 308.055,175.063 308.199 C 173.998 308.342,173.210 308.544,173.312 308.646 C 173.479 308.812,175.855 308.469,180.600 307.595 L 182.200 307.300 180.600 307.282 C 179.720 307.271,178.550 307.415,178.000 307.600 M169.921 309.012 C 169.805 309.129,168.740 309.398,167.555 309.611 C 166.370 309.824,164.590 310.179,163.600 310.401 C 162.610 310.623,160.990 310.970,160.000 311.172 C 154.607 312.274,150.063 313.279,147.200 314.005 C 146.430 314.201,145.284 314.468,144.653 314.600 C 144.022 314.731,143.597 314.930,143.708 315.041 C 143.819 315.153,145.437 314.875,147.302 314.424 C 149.168 313.973,152.473 313.224,154.647 312.761 C 156.821 312.297,159.320 311.757,160.200 311.561 C 161.080 311.364,164.320 310.678,167.400 310.036 C 170.567 309.375,172.377 308.853,171.567 308.834 C 170.778 308.815,170.038 308.895,169.921 309.012 M141.000 315.600 C 140.864 315.820,140.322 316.000,139.795 316.000 C 139.269 316.000,138.424 316.168,137.919 316.372 C 137.413 316.577,136.484 316.856,135.853 316.992 C 135.222 317.128,134.795 317.328,134.904 317.438 C 135.085 317.619,139.238 316.603,142.200 315.653 L 143.400 315.269 142.324 315.234 C 141.732 315.215,141.136 315.380,141.000 315.600 M129.878 318.800 C 128.161 319.413,126.361 320.004,125.878 320.112 C 125.395 320.220,123.470 320.880,121.600 321.577 C 116.040 323.651,113.857 324.445,112.800 324.775 C 112.250 324.947,110.975 325.464,109.968 325.923 C 108.960 326.382,107.197 327.128,106.050 327.580 C 102.446 329.001,94.629 332.964,88.000 336.733 C 77.835 342.512,66.087 352.127,58.704 360.709 C 53.403 366.873,44.800 380.837,44.800 383.278 C 44.800 383.562,45.871 381.624,47.179 378.973 C 49.351 374.572,54.163 366.863,56.275 364.400 C 56.747 363.850,57.793 362.590,58.601 361.600 C 60.674 359.059,65.738 353.907,68.773 351.251 C 70.188 350.013,71.988 348.416,72.773 347.702 C 73.558 346.988,74.334 346.403,74.499 346.402 C 74.663 346.401,75.473 345.808,76.299 345.085 C 85.444 337.076,103.854 328.094,127.800 319.958 C 131.540 318.687,134.240 317.656,133.800 317.666 C 133.360 317.676,131.595 318.186,129.878 318.800 M53.530 333.100 C 52.706 334.072,48.818 340.448,47.077 343.684 C 44.350 348.752,40.661 358.511,40.229 361.800 L 40.018 363.400 40.433 362.000 C 42.409 355.320,45.015 348.350,46.675 345.300 C 49.631 339.869,51.595 336.533,53.262 334.110 C 54.461 332.367,54.602 331.836,53.530 333.100 M39.422 365.022 C 39.272 365.825,39.238 366.572,39.348 366.682 C 39.458 366.792,39.672 366.225,39.822 365.422 C 39.973 364.619,40.006 363.873,39.896 363.763 C 39.786 363.653,39.573 364.219,39.422 365.022 M38.640 369.942 C 38.481 371.340,38.437 372.570,38.542 372.676 C 38.808 372.941,39.327 368.579,39.107 367.928 C 39.010 367.638,38.799 368.544,38.640 369.942 M38.114 375.400 C 38.117 376.500,38.195 376.903,38.287 376.295 C 38.379 375.686,38.377 374.786,38.282 374.295 C 38.187 373.803,38.111 374.300,38.114 375.400 M38.430 382.033 C 38.446 383.445,38.612 385.410,38.799 386.400 C 39.031 387.628,39.069 386.865,38.919 384.000 C 38.673 379.281,38.384 378.124,38.430 382.033 M43.957 385.100 C 43.477 386.346,42.763 388.557,41.987 391.200 C 41.270 393.641,41.217 393.712,40.518 393.132 C 40.002 392.704,39.931 392.747,40.059 393.413 C 40.317 394.752,41.365 394.296,41.926 392.600 C 43.797 386.941,44.694 384.000,44.548 384.000 C 44.456 384.000,44.190 384.495,43.957 385.100 M39.287 389.400 C 39.291 389.840,39.432 390.740,39.600 391.400 C 39.874 392.478,39.906 392.498,39.913 391.600 C 39.917 391.050,39.776 390.150,39.600 389.600 C 39.349 388.816,39.281 388.773,39.287 389.400 " stroke="none" fill="#224862" fill-rule="evenodd"></path><path id="path4" d="M357.947 10.581 L 356.953 13.522 357.848 12.861 C 358.341 12.497,358.858 11.840,358.998 11.400 C 359.218 10.707,359.329 10.787,359.831 12.000 C 360.187 12.857,360.330 13.012,360.200 12.400 C 360.084 11.850,359.876 10.630,359.739 9.689 C 359.369 7.162,359.048 7.321,357.947 10.581 M355.650 16.445 C 355.445 16.970,354.906 18.255,354.453 19.300 C 353.999 20.345,353.707 21.200,353.804 21.200 C 354.060 21.200,355.291 18.822,355.867 17.215 C 356.426 15.658,356.229 14.960,355.650 16.445 M360.293 22.600 C 360.148 26.340,359.836 30.120,359.600 31.000 C 358.974 33.330,358.480 36.882,358.833 36.515 C 359.812 35.496,361.336 19.454,360.725 16.595 C 360.632 16.158,360.437 18.860,360.293 22.600 M351.815 24.704 C 351.163 25.967,350.532 27.090,350.411 27.200 C 350.109 27.476,348.237 30.396,347.630 31.537 L 347.132 32.474 348.351 31.573 C 349.021 31.078,349.852 30.026,350.197 29.236 C 350.542 28.446,351.086 27.350,351.405 26.800 C 352.449 25.003,353.244 23.133,353.121 22.766 C 353.054 22.569,352.467 23.441,351.815 24.704 M342.921 37.725 C 340.213 41.201,335.641 45.895,330.857 50.111 L 328.714 51.999 330.429 51.231 C 331.373 50.809,332.386 50.002,332.682 49.437 C 332.978 48.872,333.743 48.140,334.382 47.809 C 335.021 47.479,336.115 46.414,336.812 45.444 C 337.509 44.473,338.883 43.101,339.866 42.395 C 340.849 41.690,341.818 40.677,342.020 40.146 C 342.222 39.615,343.000 38.819,343.748 38.377 C 344.899 37.698,346.412 34.678,345.871 34.138 C 345.823 34.090,344.495 35.704,342.921 37.725 M358.229 38.229 C 358.081 38.815,358.038 39.372,358.132 39.466 C 358.227 39.560,358.424 39.158,358.571 38.571 C 358.719 37.985,358.762 37.428,358.668 37.334 C 358.573 37.240,358.376 37.642,358.229 38.229 M355.778 44.937 C 355.209 46.179,354.803 47.601,354.874 48.097 C 354.966 48.730,355.337 48.115,356.114 46.045 C 357.447 42.497,357.226 41.772,355.778 44.937 M353.697 51.300 C 353.477 51.575,352.919 52.550,352.457 53.467 C 351.995 54.384,351.078 55.933,350.419 56.910 C 349.072 58.906,347.477 62.400,347.914 62.399 C 348.071 62.399,348.830 61.184,349.600 59.699 C 350.370 58.215,351.112 56.910,351.249 56.800 C 351.582 56.532,354.453 50.800,354.254 50.800 C 354.168 50.800,353.918 51.025,353.697 51.300 M327.600 53.115 C 327.050 53.485,324.927 55.012,322.883 56.510 C 318.579 59.661,315.347 61.786,312.800 63.137 C 310.212 64.511,310.041 64.809,312.152 64.270 C 313.299 63.978,314.610 63.229,315.586 62.311 C 316.454 61.493,317.667 60.704,318.282 60.558 C 318.897 60.411,320.570 59.272,322.000 58.026 C 323.430 56.780,325.434 55.279,326.453 54.691 C 327.472 54.103,328.412 53.346,328.541 53.011 C 328.822 52.278,328.849 52.275,327.600 53.115 M346.479 63.900 C 346.034 64.285,345.555 65.050,345.416 65.600 C 345.182 66.520,345.200 66.536,345.636 65.800 C 345.896 65.360,346.476 64.595,346.924 64.100 C 347.893 63.031,347.624 62.910,346.479 63.900 M307.200 66.231 C 305.527 67.124,305.028 67.524,305.800 67.353 C 307.365 67.007,308.928 66.210,309.578 65.426 C 310.261 64.603,310.227 64.615,307.200 66.231 M343.731 67.793 C 343.265 68.120,342.414 69.188,341.840 70.168 C 341.265 71.148,339.987 72.613,338.998 73.423 C 338.009 74.233,337.200 75.079,337.200 75.302 C 337.200 75.526,336.795 76.098,336.300 76.575 C 335.805 77.051,333.870 79.116,332.000 81.162 C 330.130 83.208,328.064 85.160,327.408 85.499 C 326.753 85.838,325.374 86.990,324.344 88.058 C 323.264 89.179,322.114 90.000,321.626 90.000 C 320.877 90.000,319.673 91.806,320.123 92.256 C 320.377 92.510,328.047 85.927,331.383 82.592 C 335.553 78.422,339.642 73.830,343.039 69.500 C 344.975 67.033,345.038 66.878,343.731 67.793 M299.248 70.248 C 298.065 70.788,297.199 71.332,297.324 71.457 C 297.643 71.776,301.093 70.411,301.643 69.748 C 302.268 68.995,301.760 69.101,299.248 70.248 M292.600 73.267 C 291.500 73.699,290.429 74.221,290.220 74.426 C 290.011 74.632,289.561 74.801,289.220 74.802 C 288.879 74.803,287.520 75.249,286.200 75.792 C 284.296 76.577,284.031 76.783,284.917 76.791 C 285.531 76.796,287.154 76.276,288.524 75.635 C 289.894 74.995,291.691 74.344,292.518 74.189 C 293.365 74.030,294.198 73.578,294.425 73.153 C 294.647 72.739,294.777 72.418,294.714 72.441 C 294.651 72.463,293.700 72.835,292.600 73.267 M280.000 78.095 C 279.450 78.312,278.280 78.762,277.400 79.093 C 276.520 79.425,275.440 79.836,275.000 80.007 C 274.560 80.179,273.570 80.499,272.800 80.719 C 272.030 80.938,271.728 81.137,272.129 81.159 C 272.975 81.207,280.420 78.838,280.973 78.346 C 281.583 77.803,281.072 77.671,280.000 78.095 M268.385 81.984 C 268.047 82.182,266.337 82.733,264.585 83.209 C 258.483 84.865,257.718 85.126,258.837 85.164 C 259.408 85.184,260.909 84.844,262.174 84.409 C 263.439 83.974,265.363 83.500,266.451 83.355 C 267.786 83.178,268.559 82.850,268.829 82.347 C 269.279 81.505,269.247 81.480,268.385 81.984 M256.000 85.600 C 255.670 85.813,254.963 85.991,254.428 85.994 C 253.894 85.997,252.904 86.178,252.228 86.396 C 251.553 86.614,248.840 87.263,246.200 87.839 C 243.560 88.415,240.770 89.026,240.000 89.197 L 238.600 89.508 240.274 89.554 C 241.195 89.579,242.455 89.388,243.074 89.128 C 244.212 88.652,246.893 88.063,252.439 87.073 C 254.111 86.774,255.906 86.231,256.428 85.865 C 257.424 85.168,257.039 84.929,256.000 85.600 M230.653 91.080 C 230.499 91.235,229.434 91.485,228.286 91.637 C 227.139 91.790,225.120 92.124,223.800 92.380 C 220.782 92.967,216.904 93.585,213.800 93.975 C 212.480 94.140,209.600 94.558,207.400 94.904 C 205.200 95.249,201.780 95.738,199.800 95.990 C 197.820 96.242,194.850 96.621,193.200 96.832 C 189.453 97.309,177.031 98.598,170.400 99.196 C 163.290 99.837,160.258 100.390,165.200 100.144 C 169.456 99.932,181.236 98.825,181.595 98.603 C 181.722 98.524,183.678 98.344,185.941 98.202 C 188.204 98.060,190.448 97.862,190.928 97.763 C 191.407 97.664,194.770 97.221,198.400 96.780 C 205.032 95.973,214.077 94.687,217.800 94.021 C 218.900 93.824,221.690 93.363,224.000 92.995 C 226.310 92.627,228.470 92.267,228.800 92.194 C 229.130 92.121,229.591 92.047,229.824 92.031 C 230.423 91.987,231.892 90.828,231.367 90.813 C 231.128 90.806,230.807 90.926,230.653 91.080 M314.840 96.030 C 313.454 97.147,311.356 98.678,310.177 99.432 C 307.954 100.854,305.769 102.800,306.395 102.800 C 306.592 102.800,306.861 102.625,306.993 102.412 C 307.125 102.198,309.250 100.576,311.716 98.807 C 317.402 94.729,318.299 94.020,317.780 94.009 C 317.549 94.004,316.226 94.914,314.840 96.030 M154.400 100.800 L 152.600 101.080 154.600 101.100 C 155.700 101.112,157.590 100.984,158.800 100.817 L 161.000 100.513 158.600 100.516 C 157.280 100.518,155.390 100.646,154.400 100.800 M143.700 101.876 C 144.085 101.976,144.715 101.976,145.100 101.876 C 145.485 101.775,145.170 101.693,144.400 101.693 C 143.630 101.693,143.315 101.775,143.700 101.876 M136.000 102.412 C 133.838 102.688,133.852 102.693,136.800 102.678 C 138.450 102.670,140.250 102.532,140.800 102.371 C 142.111 101.989,139.106 102.015,136.000 102.412 M302.385 104.537 C 299.665 106.267,296.806 108.366,298.200 107.610 C 298.640 107.372,299.720 106.728,300.600 106.180 C 301.480 105.632,302.965 104.791,303.900 104.312 C 304.835 103.833,305.600 103.296,305.600 103.120 C 305.600 102.588,305.114 102.802,302.385 104.537 M116.607 104.637 C 110.272 105.723,109.542 105.924,111.776 105.968 C 113.519 106.003,116.552 105.511,121.400 104.407 C 125.939 103.373,123.217 103.503,116.607 104.637 M106.600 106.420 C 106.061 106.665,106.454 106.705,107.800 106.541 C 108.900 106.407,109.875 106.231,109.967 106.149 C 110.317 105.836,107.361 106.074,106.600 106.420 M100.800 107.667 C 93.867 109.134,78.893 113.426,79.297 113.830 C 79.530 114.063,84.158 112.884,86.250 112.059 C 88.366 111.225,99.406 108.409,100.653 108.386 C 101.064 108.378,101.850 108.114,102.400 107.800 C 103.537 107.150,103.325 107.132,100.800 107.667 M294.200 109.600 C 293.540 110.037,293.180 110.392,293.400 110.388 C 293.801 110.382,295.976 108.823,295.600 108.812 C 295.490 108.808,294.860 109.163,294.200 109.600 M290.728 111.412 C 289.698 111.949,288.719 112.607,288.554 112.875 C 288.268 113.336,291.771 111.485,292.580 110.747 C 293.171 110.207,292.753 110.357,290.728 111.412 M76.000 114.922 C 71.029 117.025,65.957 119.420,67.333 119.015 C 67.736 118.897,68.376 118.800,68.756 118.800 C 69.136 118.800,70.483 118.176,71.750 117.413 C 73.017 116.650,74.673 115.910,75.431 115.768 C 76.189 115.626,76.915 115.338,77.044 115.128 C 77.415 114.529,77.084 114.464,76.000 114.922 M282.955 115.075 C 282.490 115.167,281.895 115.712,281.633 116.288 C 281.197 117.245,281.213 117.287,281.825 116.780 C 282.192 116.474,283.147 115.919,283.947 115.545 C 285.365 114.881,284.947 114.683,282.955 115.075 M277.747 117.771 C 276.837 118.055,275.433 118.792,274.626 119.407 C 273.820 120.022,272.234 120.828,271.102 121.197 C 269.970 121.566,268.974 122.077,268.889 122.334 C 268.711 122.866,270.200 122.261,276.400 119.282 C 280.525 117.300,281.017 116.748,277.747 117.771 M61.575 121.538 C 60.159 122.384,57.704 123.827,56.120 124.744 C 54.536 125.662,53.147 126.563,53.033 126.747 C 52.553 127.523,60.870 122.796,63.800 120.628 C 65.277 119.534,64.172 119.987,61.575 121.538 M263.200 124.542 C 261.722 124.942,257.677 127.200,258.437 127.200 C 258.701 127.200,265.326 124.366,265.567 124.150 C 265.841 123.904,265.105 124.026,263.200 124.542 M256.176 127.822 C 255.412 128.434,255.413 128.438,256.200 128.076 C 256.640 127.874,257.270 127.608,257.600 127.486 C 258.118 127.293,258.115 127.259,257.576 127.232 C 257.234 127.214,256.604 127.480,256.176 127.822 M249.800 130.048 C 248.700 130.494,246.900 131.207,245.800 131.633 C 244.700 132.060,244.250 132.337,244.800 132.250 C 245.863 132.081,252.403 129.730,252.736 129.397 C 253.179 128.954,251.677 129.287,249.800 130.048 M46.046 132.415 C 44.481 133.766,43.200 134.990,43.200 135.136 C 43.200 135.281,42.364 136.259,41.344 137.309 C 40.307 138.376,39.821 139.099,40.244 138.948 C 41.381 138.543,42.297 137.646,43.468 135.795 C 44.049 134.877,45.277 133.649,46.195 133.068 C 48.050 131.895,49.445 130.512,49.111 130.177 C 48.991 130.057,47.612 131.064,46.046 132.415 M236.200 134.778 C 234.081 135.781,235.259 135.810,237.800 134.818 C 239.270 134.244,239.535 134.035,238.800 134.029 C 238.250 134.025,237.080 134.362,236.200 134.778 M233.400 136.000 C 233.264 136.220,232.758 136.406,232.276 136.414 C 231.794 136.422,230.950 136.704,230.400 137.042 C 229.850 137.379,229.704 137.563,230.075 137.450 C 230.446 137.337,231.474 137.049,232.358 136.811 C 233.842 136.412,234.974 135.600,234.047 135.600 C 233.827 135.600,233.536 135.780,233.400 136.000 M224.600 138.590 C 222.339 139.698,223.555 139.584,227.000 138.366 C 228.756 137.745,228.854 137.656,227.800 137.634 C 227.140 137.621,225.700 138.051,224.600 138.590 M217.200 141.000 C 215.953 141.713,216.549 141.713,218.400 141.000 C 219.317 140.647,219.524 140.455,219.000 140.445 C 218.560 140.436,217.750 140.686,217.200 141.000 M212.400 142.410 C 210.923 142.921,210.657 143.093,211.591 142.934 C 213.616 142.588,216.336 141.682,215.400 141.664 C 214.960 141.656,213.610 141.991,212.400 142.410 M37.462 142.272 C 36.954 142.780,34.757 147.690,34.951 147.884 C 35.175 148.108,36.751 145.202,37.437 143.300 C 37.921 141.957,37.925 141.809,37.462 142.272 M206.943 143.491 C 205.897 143.586,205.012 143.954,204.543 144.489 C 203.815 145.318,203.817 145.329,204.600 145.022 C 205.040 144.850,206.390 144.443,207.600 144.118 C 209.932 143.491,210.633 143.154,209.367 143.270 C 208.945 143.308,207.854 143.408,206.943 143.491 M198.529 145.974 C 197.390 146.384,195.680 146.839,194.729 146.984 C 192.817 147.277,190.677 148.011,190.948 148.282 C 191.044 148.377,191.815 148.274,192.661 148.053 C 193.507 147.832,195.730 147.267,197.600 146.798 C 199.470 146.329,201.540 145.796,202.200 145.613 L 203.400 145.282 202.000 145.255 C 201.230 145.241,199.668 145.564,198.529 145.974 M186.475 149.073 C 185.526 149.409,184.814 149.747,184.892 149.826 C 185.061 149.995,190.079 148.854,190.348 148.586 C 190.766 148.167,188.081 148.505,186.475 149.073 M181.200 150.436 C 175.359 151.502,167.652 153.576,171.600 153.019 C 172.370 152.910,174.530 152.443,176.400 151.981 C 178.270 151.519,180.567 151.003,181.504 150.833 C 182.441 150.664,183.326 150.407,183.471 150.263 C 183.763 149.971,183.735 149.973,181.200 150.436 M166.742 153.392 C 166.433 153.701,157.324 156.000,156.409 156.000 C 155.451 156.000,152.587 157.120,152.857 157.390 C 153.060 157.594,158.791 156.304,161.800 155.377 C 162.900 155.038,165.150 154.425,166.800 154.015 C 169.198 153.418,169.512 153.262,168.367 153.234 C 167.578 153.215,166.847 153.286,166.742 153.392 M32.148 160.800 C 32.148 163.110,32.214 164.055,32.295 162.900 C 32.376 161.745,32.376 159.855,32.295 158.700 C 32.214 157.545,32.148 158.490,32.148 160.800 M147.200 158.466 C 145.550 158.918,143.480 159.415,142.600 159.570 C 141.720 159.725,140.607 160.066,140.126 160.326 C 139.646 160.587,138.826 160.800,138.305 160.800 C 137.784 160.800,136.438 161.258,135.315 161.818 C 134.191 162.377,132.142 163.066,130.759 163.348 C 129.377 163.630,128.181 164.058,128.100 164.299 C 127.972 164.684,136.065 162.548,138.200 161.634 C 138.640 161.445,139.720 161.097,140.600 160.860 C 141.480 160.623,143.460 160.064,145.000 159.619 C 146.540 159.174,148.790 158.553,150.000 158.241 C 151.210 157.928,151.750 157.666,151.200 157.658 C 150.650 157.650,148.850 158.014,147.200 158.466 M120.700 167.029 C 119.055 167.921,119.373 168.082,121.300 167.332 C 123.372 166.525,123.551 166.395,122.567 166.416 C 122.145 166.425,121.305 166.701,120.700 167.029 M116.200 168.815 C 115.540 168.998,114.370 169.311,113.600 169.511 C 111.639 170.018,109.662 171.094,107.853 172.637 C 107.003 173.363,105.498 174.232,104.510 174.569 C 103.521 174.906,102.057 175.794,101.256 176.543 C 100.455 177.292,99.080 178.576,98.200 179.397 C 97.137 180.389,97.353 180.271,98.843 179.045 C 100.077 178.030,101.214 177.200,101.370 177.200 C 101.526 177.200,102.258 176.739,102.997 176.175 C 104.808 174.794,115.890 169.200,116.815 169.200 C 117.221 169.200,117.664 169.020,117.800 168.800 C 118.081 168.346,117.884 168.348,116.200 168.815 M33.205 171.247 C 33.199 171.974,34.754 175.994,35.267 176.580 C 35.450 176.789,35.600 177.314,35.600 177.747 C 35.600 178.179,35.708 178.426,35.839 178.294 C 36.267 177.866,35.267 174.199,34.226 172.378 C 33.667 171.400,33.207 170.891,33.205 171.247 M233.400 174.800 C 233.116 175.260,233.764 175.260,235.200 174.800 C 236.155 174.494,236.143 174.478,234.924 174.440 C 234.222 174.418,233.536 174.580,233.400 174.800 M261.505 174.683 C 262.002 174.779,262.722 174.775,263.105 174.675 C 263.487 174.575,263.080 174.496,262.200 174.501 C 261.320 174.505,261.007 174.587,261.505 174.683 M270.700 175.482 C 271.195 175.578,272.005 175.578,272.500 175.482 C 272.995 175.387,272.590 175.309,271.600 175.309 C 270.610 175.309,270.205 175.387,270.700 175.482 M274.900 175.876 C 275.285 175.976,275.915 175.976,276.300 175.876 C 276.685 175.775,276.370 175.693,275.600 175.693 C 274.830 175.693,274.515 175.775,274.900 175.876 M285.700 177.076 C 286.085 177.176,286.715 177.176,287.100 177.076 C 287.485 176.975,287.170 176.893,286.400 176.893 C 285.630 176.893,285.315 176.975,285.700 177.076 M36.400 179.374 C 36.400 179.428,36.950 180.446,37.622 181.636 L 38.843 183.800 38.576 182.000 C 38.428 181.010,38.241 180.087,38.160 179.948 C 38.017 179.704,36.400 179.176,36.400 179.374 M94.279 182.962 C 91.279 185.742,91.950 193.962,95.441 197.200 L 96.951 198.600 95.856 197.247 C 92.385 192.955,91.963 184.603,95.129 182.832 C 95.494 182.627,95.688 182.355,95.559 182.226 C 95.431 182.097,94.854 182.429,94.279 182.962 M39.996 185.417 C 41.801 187.785,43.752 189.981,43.910 189.823 C 44.267 189.466,42.409 186.977,40.919 185.817 C 40.002 185.103,39.636 184.945,39.996 185.417 M46.689 193.500 C 47.776 194.545,49.426 196.088,50.357 196.928 L 52.050 198.457 51.407 197.213 C 51.053 196.529,50.142 195.673,49.382 195.311 C 48.622 194.948,48.000 194.524,48.000 194.368 C 48.000 193.872,45.699 191.600,45.196 191.600 C 44.930 191.600,45.602 192.455,46.689 193.500 M295.800 196.207 C 296.240 196.566,296.960 197.035,297.400 197.251 L 298.200 197.644 297.400 196.993 C 296.960 196.634,296.240 196.165,295.800 195.949 L 295.000 195.556 295.800 196.207 M342.144 196.309 C 342.460 196.821,344.800 198.553,344.800 198.275 C 344.800 198.176,344.139 197.591,343.332 196.975 C 342.524 196.359,341.989 196.059,342.144 196.309 M54.000 199.969 C 55.809 201.549,58.000 203.016,58.000 202.647 C 58.000 202.015,55.420 199.795,53.939 199.152 L 52.200 198.397 54.000 199.969 M97.646 200.000 C 98.001 200.550,98.889 201.351,99.619 201.779 C 101.342 202.791,100.850 202.020,98.694 200.329 C 97.180 199.141,97.069 199.106,97.646 200.000 M350.600 203.200 C 351.459 204.080,352.252 204.800,352.362 204.800 C 352.472 204.800,351.859 204.080,351.000 203.200 C 350.141 202.320,349.348 201.600,349.238 201.600 C 349.128 201.600,349.741 202.320,350.600 203.200 M102.406 203.513 C 102.420 204.151,103.059 204.691,104.100 204.946 C 105.573 205.306,105.486 205.048,103.800 204.053 C 103.030 203.599,102.403 203.356,102.406 203.513 M61.998 205.417 C 62.988 205.994,64.008 206.641,64.267 206.856 C 64.609 207.139,64.679 207.024,64.525 206.436 C 64.234 205.324,63.667 204.949,61.800 204.636 L 60.200 204.368 61.998 205.417 M106.400 205.864 C 106.400 206.765,112.452 209.758,112.991 209.124 C 113.049 209.056,111.590 208.271,109.748 207.381 C 107.907 206.490,106.400 205.808,106.400 205.864 M355.200 207.800 C 355.946 208.570,356.647 209.200,356.757 209.200 C 356.867 209.200,356.346 208.570,355.600 207.800 C 354.854 207.030,354.153 206.400,354.043 206.400 C 353.933 206.400,354.454 207.030,355.200 207.800 M67.092 208.391 C 67.803 208.824,69.783 209.791,71.492 210.539 C 73.201 211.288,75.140 212.142,75.800 212.437 C 76.460 212.733,77.180 213.051,77.400 213.146 C 77.620 213.240,77.457 212.931,77.038 212.458 C 76.619 211.986,75.953 211.600,75.557 211.600 C 74.766 211.600,68.664 209.013,67.411 208.146 C 66.977 207.846,66.437 207.601,66.211 207.601 C 65.985 207.602,66.381 207.957,67.092 208.391 M306.514 210.200 C 306.517 211.300,306.595 211.703,306.687 211.095 C 306.779 210.486,306.777 209.586,306.682 209.095 C 306.587 208.603,306.511 209.100,306.514 210.200 M115.219 210.435 C 115.441 210.850,116.113 211.298,116.712 211.428 C 117.310 211.559,118.301 211.824,118.914 212.017 C 119.614 212.238,119.939 212.226,119.790 211.984 C 119.660 211.773,119.383 211.600,119.174 211.600 C 118.966 211.600,117.900 211.168,116.805 210.640 C 115.003 209.770,114.852 209.751,115.219 210.435 M122.200 213.371 C 124.035 214.202,127.202 215.069,126.749 214.616 C 126.409 214.276,121.200 212.399,120.691 212.433 C 120.421 212.451,121.100 212.873,122.200 213.371 M78.882 213.622 C 79.544 214.008,86.797 216.412,87.200 216.379 C 87.310 216.370,86.579 215.935,85.575 215.412 C 83.189 214.169,76.965 212.504,78.882 213.622 M132.164 216.742 C 132.472 217.240,135.035 218.013,136.200 217.958 C 136.640 217.938,136.210 217.673,135.244 217.370 C 134.278 217.066,133.131 216.705,132.694 216.566 C 132.182 216.404,131.994 216.466,132.164 216.742 M302.000 218.600 C 301.028 219.590,300.323 220.400,300.433 220.400 C 300.543 220.400,301.428 219.590,302.400 218.600 C 303.372 217.610,304.077 216.800,303.967 216.800 C 303.857 216.800,302.972 217.610,302.000 218.600 M92.033 217.753 C 92.567 218.242,109.086 221.657,110.488 221.567 C 112.114 221.464,107.909 220.387,104.371 220.001 C 102.077 219.750,98.926 219.108,97.370 218.573 C 95.013 217.763,91.447 217.215,92.033 217.753 M140.737 219.262 C 141.152 219.814,145.279 220.872,146.633 220.773 C 147.389 220.718,143.358 219.612,142.380 219.606 C 141.819 219.603,141.108 219.375,140.799 219.100 C 140.327 218.679,140.317 218.704,140.737 219.262 M120.600 223.018 C 123.460 223.305,128.081 223.739,130.869 223.983 C 136.663 224.490,153.501 225.023,153.200 224.689 C 153.090 224.567,150.750 224.428,148.000 224.381 C 142.986 224.295,131.578 223.589,122.600 222.810 C 119.960 222.581,117.260 222.417,116.600 222.445 C 115.940 222.474,117.740 222.732,120.600 223.018 M158.255 224.200 C 158.065 224.695,158.459 224.795,160.513 224.773 L 163.000 224.746 161.200 224.179 C 158.916 223.460,158.538 223.462,158.255 224.200 M368.093 235.600 C 368.093 236.370,368.175 236.685,368.276 236.300 C 368.376 235.915,368.376 235.285,368.276 234.900 C 368.175 234.515,368.093 234.830,368.093 235.600 M368.101 241.000 C 368.105 241.880,368.187 242.193,368.283 241.695 C 368.379 241.198,368.375 240.478,368.275 240.095 C 368.175 239.713,368.096 240.120,368.101 241.000 M231.800 245.200 C 230.781 245.638,231.832 245.638,233.200 245.200 C 234.004 244.943,234.043 244.877,233.400 244.868 C 232.960 244.862,232.240 245.011,231.800 245.200 M202.000 252.418 C 201.562 252.715,201.724 252.752,202.600 252.556 C 204.071 252.227,204.390 251.998,203.367 252.006 C 202.945 252.009,202.330 252.195,202.000 252.418 M355.579 265.822 C 355.051 266.384,354.888 266.741,355.218 266.614 C 355.739 266.415,357.034 264.800,356.673 264.800 C 356.600 264.800,356.107 265.260,355.579 265.822 M139.400 272.800 C 138.520 273.207,137.941 273.554,138.113 273.570 C 138.587 273.615,141.200 272.472,141.200 272.220 C 141.200 271.949,141.323 271.910,139.400 272.800 M338.700 278.229 C 337.205 279.040,337.296 279.378,338.800 278.600 C 339.460 278.259,340.000 277.894,340.000 277.790 C 340.000 277.532,339.957 277.547,338.700 278.229 M107.500 287.829 C 105.949 288.670,106.125 288.961,107.700 288.159 C 109.208 287.393,109.475 287.194,108.967 287.216 C 108.765 287.225,108.105 287.501,107.500 287.829 M273.505 296.683 C 274.002 296.779,274.722 296.775,275.105 296.675 C 275.487 296.575,275.080 296.496,274.200 296.501 C 273.320 296.505,273.007 296.587,273.505 296.683 M258.300 298.289 C 259.015 298.378,260.185 298.378,260.900 298.289 C 261.615 298.201,261.030 298.128,259.600 298.128 C 258.170 298.128,257.585 298.201,258.300 298.289 M218.200 302.010 C 217.666 302.247,217.998 302.286,219.200 302.127 C 220.190 301.996,221.075 301.824,221.167 301.744 C 221.514 301.443,218.964 301.672,218.200 302.010 M209.100 303.082 C 209.595 303.178,210.405 303.178,210.900 303.082 C 211.395 302.987,210.990 302.909,210.000 302.909 C 209.010 302.909,208.605 302.987,209.100 303.082 M87.500 336.629 C 86.005 337.440,86.096 337.778,87.600 337.000 C 88.260 336.659,88.800 336.294,88.800 336.190 C 88.800 335.932,88.757 335.947,87.500 336.629 M82.144 339.969 C 81.453 340.390,80.757 340.946,80.598 341.204 C 80.439 341.461,81.049 341.182,81.954 340.583 C 83.379 339.640,83.876 339.196,83.500 339.201 C 83.445 339.202,82.835 339.548,82.144 339.969 M39.456 366.484 C 39.321 366.988,39.228 367.850,39.249 368.400 C 39.272 368.989,39.431 368.671,39.636 367.625 C 40.003 365.752,39.873 364.927,39.456 366.484 M38.524 377.400 C 38.526 378.720,38.601 379.212,38.690 378.493 C 38.779 377.774,38.777 376.694,38.686 376.093 C 38.595 375.492,38.522 376.080,38.524 377.400 M40.046 392.051 C 39.994 392.792,40.939 393.728,41.337 393.330 C 41.807 392.859,41.615 392.420,41.035 392.642 C 40.703 392.769,40.392 392.558,40.281 392.129 C 40.131 391.546,40.084 391.530,40.046 392.051 " stroke="none" fill="#3c607a" fill-rule="evenodd"></path></g></svg>