<svg width="1224" height="274" viewBox="0 0 1224 274" fill="none" xmlns="http://www.w3.org/2000/svg">
<g clip-path="url(#clip0_254_63870)">
<rect width="1224" height="274" rx="16" fill="url(#paint0_linear_254_63870)"/>
<path d="M136.454 109.213C141.054 114.813 141.354 120.613 137.654 126.913C138.954 126.913 139.854 126.913 140.654 126.913C153.354 126.913 166.054 127.413 178.754 128.813C187.054 129.713 195.254 131.013 203.154 133.613C206.054 134.513 208.854 135.713 211.554 137.113C213.354 138.013 215.054 139.413 216.454 140.913C219.554 144.313 219.654 148.813 217.054 152.613C215.654 154.713 213.754 156.413 211.654 157.613C207.954 159.713 204.254 161.713 200.354 163.413C189.854 168.013 178.954 171.513 168.054 174.813C154.654 178.913 141.254 182.813 127.854 186.813C127.054 187.013 126.154 187.313 124.954 187.713C125.854 188.213 126.454 188.513 127.054 188.813C129.454 190.113 131.154 191.913 131.254 194.713C131.354 197.713 129.854 199.813 127.354 201.113C125.354 202.113 123.054 203.013 120.854 203.613C111.954 206.113 102.854 207.513 93.7537 208.913C76.3537 211.513 58.8537 213.313 41.2537 214.013C26.2537 214.613 11.3537 214.613 -3.5463 212.313C-9.1463 211.413 -14.7463 210.213 -19.9463 208.013C-22.7463 206.813 -25.4463 205.413 -27.7463 203.313C-33.0463 198.613 -34.2463 192.213 -30.9463 185.913C-29.2463 182.713 -26.8463 180.013 -24.1463 177.613C-18.8463 172.913 -12.7463 169.313 -6.5463 166.113C-5.5463 165.613 -4.4463 165.013 -3.4463 164.113C-4.0463 164.113 -4.6463 164.113 -5.1463 164.113C-15.3463 164.613 -25.6463 164.713 -35.8463 163.313C-40.4463 162.713 -44.9463 161.713 -49.3463 159.913C-52.4463 158.613 -55.4463 157.013 -57.8463 154.613C-62.2463 150.213 -63.6463 145.013 -62.0463 139.013C-61.1463 135.613 -59.5463 132.613 -57.1463 130.013C-54.3463 126.913 -51.5463 123.813 -48.3463 121.213C-43.0463 116.913 -37.4463 113.113 -31.9463 109.013C-31.1463 108.413 -30.4463 107.913 -29.1463 106.913C-30.3463 106.813 -30.9463 106.713 -31.6463 106.713C-37.6463 106.713 -43.6463 106.813 -49.6463 106.513C-52.9463 106.413 -56.3463 105.813 -59.6463 105.113C-61.6463 104.713 -63.6463 103.913 -65.4463 102.913C-71.7463 99.5129 -73.9463 93.3129 -71.3463 86.6129C-69.9463 83.0129 -67.5463 80.0129 -64.8463 77.2129C-63.9463 76.2129 -62.9463 75.3129 -61.7463 74.1129C-62.5463 74.0129 -63.0463 73.9129 -63.5463 73.9129C-65.8463 73.8129 -68.1463 73.8129 -70.4463 73.5129C-72.0463 73.3129 -73.7463 72.8129 -75.2463 72.1129C-79.5463 70.0129 -81.1463 65.5129 -79.1463 61.2129C-78.3463 59.5129 -77.1463 57.8129 -75.8463 56.6129C-73.3463 54.4129 -70.7463 52.2129 -67.8463 50.5129C-61.9463 47.1129 -56.0463 43.8129 -49.8463 40.9129C-40.4463 36.8129 -31.0463 33.0129 -21.7463 29.0129C-20.1463 28.3129 -18.4463 27.6129 -16.9463 26.7129C-3.44629 18.4129 11.1537 12.4129 26.1537 7.71291C50.7537 -0.0870914 75.9537 -5.08709 101.754 -7.28709C112.154 -8.18709 122.554 -8.38709 132.854 -6.98709C136.854 -6.48709 140.754 -5.68709 144.454 -3.98709C146.354 -3.08709 148.354 -2.08709 149.954 -0.687091C153.954 2.61291 154.954 7.71291 152.454 12.3129C151.454 14.2129 150.154 16.0129 148.554 17.4129C145.254 20.4129 141.754 23.2129 138.054 25.7129C130.754 30.7129 122.954 34.8129 115.154 38.8129C114.354 39.2129 113.654 39.6129 112.854 40.5129C113.854 40.6129 114.754 40.7129 115.754 40.9129C117.654 41.3129 119.554 41.6129 121.354 42.2129C128.254 44.7129 129.554 51.4129 124.154 56.3129C122.454 57.8129 120.454 59.2129 118.454 60.3129C114.054 62.7129 109.454 64.9129 104.954 67.0129C100.954 68.8129 96.9537 70.5129 92.8537 72.6129C93.4537 72.7129 94.1537 72.8129 94.7537 72.8129C105.654 73.3129 116.454 74.1129 127.154 76.0129C132.754 77.0129 138.354 78.1129 143.654 80.3129C145.954 81.3129 148.354 82.4129 150.354 83.9129C155.554 87.8129 156.054 93.9129 151.754 98.8129C150.354 100.313 148.754 101.713 147.054 102.913C144.254 104.813 141.254 106.313 138.354 108.013C137.854 108.413 137.254 108.813 136.454 109.213Z" fill="#EDFFF4"/>
<path d="M209.429 154.793C209.715 154.001 209.954 153.357 210.143 152.664C211.036 149.053 210.796 145.504 209.963 141.865C208.768 136.799 206.493 132.239 203.679 127.933C199.006 120.838 193.065 114.843 186.345 109.745C176.389 102.171 165.374 96.7797 153.397 93.3731C146.666 91.4814 139.895 90.3301 132.944 90.562C130.429 90.6417 127.967 90.9673 125.506 91.3916C124.079 91.6555 122.706 92.3625 121.333 92.971C120.842 93.1742 120.351 93.3774 119.952 92.9877C119.701 92.6454 119.448 92.106 119.443 91.7114C119.481 90.7738 120.115 90.125 120.9 89.8196C122.47 89.1101 123.989 88.2533 125.662 87.9372C128.367 87.362 131.126 87.0328 133.936 86.9495C139.258 86.5893 144.643 87.2641 149.885 88.4832C168.187 92.7999 184.221 101.336 197.649 114.639C203.64 120.584 208.555 127.331 211.659 135.235C214.356 142.157 215.476 149.098 212.704 156.431C213.25 156.769 213.796 157.01 214.292 157.299C220.795 160.723 227.009 164.742 232.592 169.606C238.025 174.325 242.774 179.644 246.009 186.115C247.021 188.175 247.836 190.335 248.454 192.498C251.295 203.166 247.265 212.488 237.663 217.93C234.185 219.896 230.451 221.125 226.566 222.01C218.99 223.68 211.298 223.871 203.598 223.372C201.476 223.25 199.401 222.979 197.229 222.808C196.784 222.764 196.39 222.769 195.748 222.727C195.954 223.415 196.109 224.055 196.264 224.595C197.855 229.755 198.61 235.073 197.935 240.457C197.128 247.175 194.387 252.978 189.313 257.577C186.288 260.277 182.907 262.143 179.076 263.472C173.034 265.567 166.777 266.086 160.411 265.818C159.572 265.779 158.733 265.739 157.746 265.653C157.754 266.343 157.811 266.984 157.818 267.575C158.088 273.589 156.874 279.227 153.284 284.202C150.714 287.834 147.293 290.44 143.321 292.411C138.222 294.939 132.861 296.138 127.244 296.601C119.459 297.287 111.756 296.59 104.14 294.907C103.547 294.815 102.905 294.675 102.163 294.536C102.221 295.275 102.277 295.817 102.334 296.457C103.103 302.959 103.576 309.464 103.063 315.98C102.853 318.992 102.395 321.956 101.839 324.922C101.471 327.097 100.658 329.228 99.3987 331.117C98.479 332.559 97.5984 333.161 96.2212 333.474C96.22 333.375 96.1689 333.228 96.1689 333.228C97.779 331.778 98.4955 329.846 99.0136 327.817C99.8144 324.7 100.072 321.541 100.133 318.383C100.331 310.292 99.6416 302.211 98.5089 294.186C98.4578 294.038 98.4067 293.891 98.3533 293.546C97.9076 293.404 97.4121 293.212 96.8679 293.071C83.7001 289.087 71.6884 282.82 61.0291 274.169C55.3512 269.601 50.3067 264.385 46.6786 258.017C45.3691 255.764 44.4041 253.457 43.7326 250.95C43.2656 249.032 43.0944 247.111 43.3178 245.184C43.9071 240.886 46.2385 237.899 50.2644 236.37C53.0629 235.301 55.9231 235.266 58.8868 235.625C64.9627 236.39 70.3672 238.742 75.3891 242.084C86.5285 249.644 94.002 259.961 97.66 272.889C99.1027 278.001 100.006 283.366 101.154 288.58C101.26 289.171 101.366 289.761 101.471 290.352C101.67 290.448 101.77 290.546 101.918 290.593C110.971 292.802 120.156 293.776 129.463 292.529C134.732 291.825 139.697 290.433 144.249 287.567C151.738 282.791 155.29 274.659 153.894 265.305C153.4 265.212 152.757 265.072 152.164 264.98C140.452 263.099 129.458 259.385 119.273 253.244C115.049 250.681 111.118 247.818 107.769 244.16C105.821 242.062 104.018 239.815 102.999 237.164C102.39 235.692 101.926 234.07 101.809 232.493C101.469 228.847 103.307 225.866 106.641 224.247C108.554 223.385 110.572 223.016 112.643 222.991C116.194 222.948 119.656 223.695 122.975 224.888C130.801 227.655 137.514 232.16 143.306 238.009C149.797 244.54 154.524 252.079 156.803 261.126C156.854 261.274 156.905 261.421 157.008 261.716C157.452 261.76 157.946 261.852 158.391 261.896C163.574 262.278 168.8 262.116 173.916 260.969C177.9 260.083 181.582 258.608 184.907 256.2C189.454 252.939 192.311 248.515 193.577 243.124C194.612 238.968 194.66 234.726 193.82 230.494C193.347 228.083 192.579 225.774 191.959 223.414C191.699 222.382 191.053 221.946 189.966 221.761C182.553 220.569 175.33 218.781 168.249 216.45C157.406 212.981 146.896 208.57 137.205 202.521C132.484 199.57 128.104 196.269 124.355 192.122C122.504 190.023 120.899 187.774 120.028 185.071C118.643 180.698 120.423 176.978 124.694 175.299C125.872 174.791 127.15 174.48 128.431 174.366C130.451 174.193 132.424 174.17 134.399 174.343C138.793 174.734 143.099 175.915 147.212 177.493C161.679 182.941 174.063 191.423 184.12 203.287C187.823 207.681 190.989 212.526 193.419 217.725C193.773 218.46 194.125 218.998 195.112 219.085C203.016 220.075 210.865 220.621 218.795 219.786C223.328 219.336 227.756 218.494 231.978 216.865C234.433 215.947 236.786 214.735 238.838 213.132C244.166 209.072 246.468 203.718 245.944 197.066C245.541 192.286 243.665 188.018 241.15 184.004C237.781 178.668 233.437 174.232 228.506 170.297C223.426 166.215 217.96 162.829 212.154 159.89C211.855 159.696 211.558 159.601 211.163 159.507C210.87 159.807 210.577 160.008 210.383 160.306C207.858 163.592 204.68 165.948 200.801 167.327C198.247 168.245 195.593 169.067 192.935 169.493C181.563 171.258 170.594 169.615 160.081 164.908C157.651 163.803 155.315 162.401 153.419 160.55C152.82 159.965 152.221 159.38 151.671 158.746C148.416 154.691 149.25 150.242 153.556 147.428C155.367 146.272 157.382 145.607 159.448 145.187C162.694 144.457 166.047 144.318 169.451 144.425C177.987 144.667 186.294 146.441 194.367 149.155C198.873 150.63 203.236 152.55 207.646 154.223C208.288 154.265 208.833 154.505 209.429 154.793ZM98.0062 289.309C97.6366 287.291 97.3192 285.519 96.952 283.699C95.7469 277.844 94.3945 272.04 91.912 266.595C87.1002 256.148 79.8489 247.9 69.7695 242.35C66.0453 240.274 62.0335 238.892 57.739 238.598C55.6654 238.426 53.644 238.5 51.6311 239.264C48.7839 240.383 47.0324 242.377 46.8233 245.487C46.7425 246.968 46.7616 248.546 47.2227 249.971C47.8395 252.035 48.6535 254.097 49.7123 256.007C52.7367 261.396 56.934 265.883 61.6184 269.871C71.8345 278.576 83.4516 284.848 96.2261 288.936C96.7204 289.028 97.2635 289.071 98.0062 289.309ZM189.772 217.966C189.569 217.475 189.516 217.229 189.365 216.984C187.346 213.162 184.985 209.59 182.282 206.268C175.374 197.868 167.055 191.113 157.571 185.851C151.166 182.328 144.524 179.548 137.307 178.254C134.984 177.838 132.566 177.719 130.198 177.748C128.719 177.765 127.244 178.178 125.821 178.738C123.759 179.552 123.04 181.287 123.608 183.401C123.867 184.433 124.322 185.365 124.876 186.295C126.438 188.989 128.585 191.183 130.927 193.177C134.466 196.241 138.296 198.908 142.417 201.176C156.869 209.337 172.37 214.625 188.636 217.832C188.883 217.878 189.229 217.923 189.772 217.966ZM153.301 261.119C153.197 260.627 153.192 260.233 153.04 259.889C152.428 258.22 151.963 256.499 151.204 254.881C146.845 245.168 139.899 237.705 130.953 232.092C126.58 229.382 122.018 227.366 116.927 226.49C114.604 226.074 112.285 225.954 109.923 226.476C106.088 227.41 104.492 230.044 105.524 233.878C106.093 235.992 107.299 237.852 108.651 239.562C111.558 243.374 115.341 246.288 119.367 248.853C129.408 255.242 140.403 259.056 152.067 260.986C152.364 261.081 152.758 261.077 153.301 261.119ZM207.935 157.721C207.488 157.48 207.19 157.287 206.942 157.142C197.074 152.772 186.824 149.493 176.105 148.093C171.609 147.506 167.117 147.215 162.588 147.862C160.569 148.133 158.503 148.651 156.639 149.463C152.615 151.188 152.158 154.153 155.205 157.322C157.152 159.321 159.488 160.723 162.016 161.827C171.387 165.906 181.122 167.416 191.268 166.209C195.011 165.769 198.6 164.789 201.932 162.973C204.235 161.712 206.237 160.06 207.935 157.721Z" fill="white"/>
<path d="M1200.86 276.638C1200.53 284.547 1196.56 289.505 1188.96 291.972C1190.02 292.914 1190.76 293.566 1191.41 294.146C1201.75 303.349 1211.73 312.96 1221.05 323.307C1227.16 330.057 1232.89 337.062 1237.43 344.911C1239.14 347.748 1240.54 350.758 1241.73 353.858C1242.54 355.898 1242.9 358.274 1242.95 360.514C1243 365.539 1239.81 369.289 1234.93 370.51C1232.27 371.212 1229.48 371.224 1226.9 370.683C1222.36 369.718 1217.89 368.671 1213.48 367.235C1201.58 363.385 1190.16 358.347 1178.89 353.145C1164.99 346.785 1151.25 340.262 1137.42 333.821C1136.63 333.404 1135.68 332.997 1134.41 332.455C1134.78 333.515 1135.05 334.195 1135.32 334.875C1136.33 337.677 1136.4 340.38 1134.45 342.74C1132.35 345.264 1129.6 345.894 1126.62 345.144C1124.26 344.512 1121.74 343.581 1119.51 342.477C1110.44 338.071 1102.01 332.621 1093.59 327.171C1077.53 316.686 1061.97 305.476 1047.12 293.295C1034.47 282.915 1022.34 272.118 1011.88 259.441C1007.97 254.648 1004.29 249.609 1001.65 244.043C1000.24 241.034 999.063 237.933 998.718 234.55C997.819 226.869 1001.5 220.769 1008.77 218.012C1012.48 216.629 1016.39 216.162 1020.34 216.157C1028.07 216.157 1035.66 217.635 1043.03 219.513C1044.21 219.829 1045.54 220.136 1047.01 220.125C1046.52 219.69 1046.03 219.255 1045.63 218.893C1036.96 211.91 1028.5 204.528 1021.21 195.993C1017.9 192.169 1014.96 188.091 1012.69 183.432C1011.11 180.123 1009.83 176.641 1009.62 172.941C1009.24 166.157 1011.88 160.893 1017.55 157.149C1020.75 155.023 1024.24 153.731 1028.08 153.345C1032.62 152.841 1037.15 152.336 1041.65 152.53C1049.09 152.857 1056.41 153.81 1063.87 154.445C1064.96 154.534 1065.89 154.633 1067.68 154.758C1066.78 153.806 1066.36 153.29 1065.79 152.783C1060.9 148.435 1055.95 144.169 1051.28 139.576C1048.66 137.103 1046.33 134.148 1044.15 131.185C1042.81 129.409 1041.77 127.306 1041.03 125.184C1038.37 117.841 1041.09 111.18 1048.08 107.589C1051.84 105.661 1055.97 104.949 1060.21 104.617C1061.67 104.452 1063.14 104.441 1064.99 104.33C1064.41 103.669 1064.07 103.225 1063.67 102.862C1061.86 101.114 1059.99 99.4473 1058.34 97.5354C1057.18 96.2126 1056.16 94.5721 1055.45 92.9131C1053.47 88.081 1055.44 83.2442 1060.2 81.1795C1062.08 80.37 1064.3 79.8503 1066.23 79.8117C1069.87 79.8254 1073.58 79.9117 1077.18 80.6239C1084.46 82.1208 1091.66 83.6994 1098.82 85.8223C1109.46 89.2834 1119.87 92.9897 1130.36 96.46C1132.17 97.0474 1134.06 97.7073 1135.94 98.0587C1152.97 101.059 1169.22 106.735 1184.85 113.764C1210.56 125.216 1234.71 139.391 1257.32 156.289C1266.44 163.09 1275.06 170.462 1282.43 179.07C1285.32 182.377 1287.92 185.857 1289.69 189.928C1290.59 192.04 1291.49 194.307 1291.77 196.61C1292.63 202.205 1289.74 207.098 1284.35 209.045C1282.16 209.873 1279.79 210.402 1277.47 210.387C1272.6 210.447 1267.71 210.199 1262.88 209.561C1253.3 208.357 1243.97 206.055 1234.71 203.672C1233.77 203.419 1232.91 203.239 1231.6 203.395C1232.34 204.201 1233 204.935 1233.67 205.823C1234.93 207.527 1236.26 209.149 1237.29 210.943C1241.09 217.986 1237.27 224.404 1229.31 224.495C1226.84 224.489 1224.19 224.183 1221.76 223.633C1216.43 222.406 1211.09 220.87 1205.9 219.326C1201.33 217.898 1196.84 216.389 1191.97 215.134C1192.39 215.65 1192.88 216.239 1193.37 216.674C1201.88 224.981 1210.1 233.461 1217.43 242.768C1221.26 247.643 1225.02 252.6 1227.74 258.238C1228.88 260.722 1230.04 263.36 1230.58 266.035C1231.97 272.99 1227.95 278.338 1220.88 279.226C1218.65 279.437 1216.33 279.422 1214.07 279.171C1210.41 278.694 1206.88 277.746 1203.28 277.034C1202.58 276.998 1201.8 276.891 1200.86 276.638Z" fill="#EDFFF4"/>
<path d="M1049.38 112.857C1040.31 106.128 1036.45 96.6776 1034.19 86.3955C1032.9 80.6496 1032.3 74.8281 1033.05 68.9309C1033.35 66.436 1033.81 64.0167 1034.87 61.7486C1035.55 60.3877 1036.3 59.1024 1037.36 57.9684C1039.33 55.8515 1042.05 55.4734 1044.69 56.6831C1046.36 57.4391 1047.72 58.7244 1048.85 60.0853C1050.82 62.5046 1052.25 65.2263 1053.39 68.0993C1056.41 75.6597 1057.4 83.5981 1057.24 91.7634C1057.09 97.2068 1056.49 102.65 1055.35 107.943C1055.28 108.321 1055.28 108.623 1055.2 109.077C1057.32 110.135 1059.59 110.362 1061.93 110.438C1071.68 110.891 1081.21 109.455 1090.43 106.279C1093.46 105.221 1096.41 104.011 1099.28 102.575C1104.88 99.9286 1109.64 96.0728 1113.42 91.2341C1114.1 90.4025 1114.78 89.5708 1115.54 88.7392C1115.61 88.6636 1115.76 88.6636 1116.14 88.6636C1115.99 89.1928 1115.91 89.5708 1115.76 89.9489C1112.81 96.224 1108.5 101.289 1102.76 105.221C1095.58 110.06 1087.64 113.084 1079.25 114.747C1072.37 116.108 1065.49 116.713 1058.53 115.881C1057.02 115.73 1055.43 115.352 1053.77 115.049C1053.62 115.427 1053.46 115.881 1053.31 116.335C1051.27 123.215 1048.85 129.868 1045.37 136.143C1042.58 141.208 1039.33 145.896 1035.17 149.978C1032.9 152.171 1030.41 154.137 1027.61 155.573C1020.43 159.202 1013.85 158.068 1008.4 152.171C1008.1 151.869 1007.8 151.566 1007.35 151.112C1007.04 151.944 1006.82 152.549 1006.51 153.229C1004.55 158.673 1002.36 164.041 999.559 169.182C997.139 173.567 994.342 177.725 990.713 181.278C988.974 183.017 987.084 184.454 984.891 185.588C979.599 188.234 974.534 187.856 969.695 184.378C968.788 183.773 968.032 183.017 967.049 182.261C966.747 183.093 966.52 183.698 966.293 184.378C964.252 190.427 961.757 196.399 958.657 201.994C957.901 203.43 956.994 204.791 956.011 206.077C955.557 206.757 954.801 207.211 954.121 207.74C953.516 208.118 952.835 208.118 952.306 207.513C951.777 206.908 952.004 206.303 952.457 205.699C953.365 204.413 954.196 203.052 954.952 201.692C958.732 194.812 961.605 187.554 963.949 180.144C964.176 179.464 964.327 178.784 963.798 178.103C958.884 171.148 956.313 163.285 954.725 154.968C952.457 143.401 952.004 131.682 953.365 119.964C953.818 115.957 954.574 112.101 956.238 108.396C956.842 107.035 957.598 105.674 958.506 104.54C960.774 101.743 963.874 101.592 966.595 104.011C968.259 105.523 969.393 107.338 970.3 109.379C972.19 113.31 973.248 117.544 973.929 121.854C975.29 130.095 975.29 138.335 974.458 146.652C973.475 156.783 971.51 166.763 968.788 176.515C968.485 177.65 968.485 178.481 969.468 179.237C970.678 180.22 971.812 181.354 973.097 182.186C975.97 184 978.994 184.151 982.094 182.791C984.211 181.883 985.95 180.522 987.538 178.935C990.335 176.289 992.527 173.189 994.569 169.938C998.803 162.982 1001.9 155.498 1004.47 147.786C1004.7 147.105 1004.78 146.576 1004.4 145.896C1001 139.016 999.483 131.607 998.727 124.046C997.895 115.881 997.971 107.716 999.332 99.6262C999.861 96.5264 1000.54 93.4266 1001.83 90.5537C1002.36 89.344 1003.04 88.1344 1003.87 87.1515C1005.91 84.7322 1008.78 84.8078 1010.67 87.3027C1011.58 88.5124 1012.26 89.8733 1012.79 91.3097C1014.23 95.3167 1014.68 99.5506 1014.98 103.784C1015.74 117.318 1013.47 130.548 1009.69 143.476C1009.54 143.93 1009.46 144.384 1009.24 144.837C1008.93 145.593 1009.08 146.274 1009.54 146.879C1010.6 148.24 1011.58 149.752 1012.86 150.886C1015.81 153.683 1019.37 154.363 1023.15 152.851C1025.11 152.095 1027 150.886 1028.74 149.6C1031.77 147.332 1034.19 144.459 1036.38 141.435C1040.99 135.084 1044.24 127.978 1046.81 120.568C1047.72 118.225 1048.47 115.579 1049.38 112.857ZM965.612 174.172C965.839 173.718 965.915 173.567 965.99 173.34C966.142 172.962 966.217 172.508 966.369 172.13C969.166 162.226 971.056 152.095 971.661 141.813C972.114 134.328 971.963 126.844 970.3 119.434C969.544 116.108 968.712 112.857 967.049 109.833C966.293 108.547 965.386 107.338 964.327 106.279C963.344 105.296 962.21 105.372 961.379 106.582C960.623 107.64 959.942 108.85 959.489 110.06C957.825 114.218 957.22 118.603 956.842 123.063C956.086 132.816 956.616 142.494 958.279 152.171C959.489 159.051 961.227 165.78 964.403 172.055C964.781 172.584 965.083 173.264 965.612 174.172ZM1050.74 106.431C1050.97 105.523 1051.12 104.918 1051.2 104.389C1051.5 102.272 1051.88 100.231 1052.1 98.1141C1052.94 90.4781 1052.71 82.9177 1050.82 75.4329C1049.84 71.5771 1048.47 67.9481 1046.28 64.6215C1045.45 63.4119 1044.47 62.3534 1043.41 61.3705C1041.97 60.1609 1040.99 60.4633 1040.01 62.051C1039.63 62.6558 1039.33 63.3362 1039.18 64.0167C1038.8 65.7556 1038.34 67.5701 1038.19 69.3846C1037.66 75.9621 1038.57 82.3885 1040.38 88.7392C1041.97 94.1827 1044.32 99.2481 1048.02 103.633C1048.78 104.54 1049.68 105.372 1050.74 106.431ZM1007.57 89.6464C1007.42 89.6464 1007.19 89.6464 1007.04 89.722C1006.67 90.4025 1006.14 91.0073 1005.83 91.6877C1005.3 93.1242 1004.7 94.6363 1004.32 96.1484C1002.51 103.406 1002.2 110.816 1002.58 118.3C1002.89 125.105 1003.79 131.909 1005.76 138.487C1005.91 139.016 1006.14 139.545 1006.36 140.074C1006.82 139.469 1007.12 138.865 1007.19 138.26C1008.1 133.799 1009.24 129.414 1009.92 124.954C1011.28 116.864 1011.73 108.699 1010.75 100.609C1010.45 97.8873 1009.69 95.1655 1008.93 92.5194C1008.78 91.4609 1008.1 90.5537 1007.57 89.6464Z" fill="white"/>
</g>
<defs>
<linearGradient id="paint0_linear_254_63870" x1="-85.0001" y1="-517.51" x2="-214.135" y2="196.169" gradientUnits="userSpaceOnUse">
<stop stop-color="#F2FDEB"/>
<stop offset="1" stop-color="#E0F4FD"/>
</linearGradient>
<clipPath id="clip0_254_63870">
<rect width="1224" height="274" rx="16" fill="white"/>
</clipPath>
</defs>
</svg>
