<svg width="424" height="404" viewBox="0 0 424 404" fill="none" xmlns="http://www.w3.org/2000/svg">
<path fill-rule="evenodd" clip-rule="evenodd" d="M89.7547 278.332C70.375 285.317 48.6126 285.564 28.2745 274.868L28.262 274.861C1.49545 260.768 -0.732652 234.101 0.922646 215.949C2.7595 195.806 10.4314 172.875 19.3171 151.614C30.5942 124.631 45.2609 97.1783 56.1455 77.5866C52.3945 79.2425 49.2085 80.7332 46.9751 81.8027C45.8541 82.3396 44.9823 82.7659 44.4097 83.0485C44.1236 83.1896 43.913 83.2945 43.7842 83.3589L43.6532 83.4246L43.6502 83.4261C43.6479 83.4272 43.6456 83.4284 43.6434 83.4295C43.6418 83.4303 43.6402 83.4311 43.6387 83.4319L43.6356 83.4334C30.0271 90.3095 12.3478 86.6361 4.14069 75.2246C-4.06932 63.8089 0.308611 48.9725 13.9191 42.0864L28.7846 62.7562C13.9191 42.0864 13.9233 42.0843 13.928 42.0819L13.9674 42.062L14.0497 42.0206L14.3134 41.8883C14.5326 41.7788 14.8376 41.627 15.2219 41.4373C15.9902 41.0582 17.0783 40.5265 18.434 39.8772C21.1388 38.5819 24.9448 36.8017 29.4282 34.8238C38.1616 30.9712 50.4032 25.9494 62.3964 22.4567C68.3457 20.7241 75.2379 19.067 82.1919 18.3279C88.3208 17.6765 98.9921 17.2049 109.346 21.6848C122.627 27.4312 128.746 38.1856 129.165 48.6844C129.511 57.36 126.143 65.7736 122.373 72.8425C120.59 76.1843 118.052 80.6883 114.999 86.1057C104.119 105.414 86.7009 136.326 73.6371 167.584C65.2666 187.613 59.5749 205.821 58.3157 219.63C57.3893 229.789 59.102 233.456 59.6583 234.366C61.4806 235.204 63.1359 235.379 67.0298 233.976C73.1865 231.757 82.0073 226.164 93.3403 215.455C115.862 194.173 139.855 161.059 165.509 124.626C167.533 121.753 169.566 118.859 171.609 115.952C194.589 83.2492 218.724 48.9038 242.336 23.7602C255.154 10.1115 269.43 -2.62825 285.085 -10.9208C301.258 -19.4878 322.201 -24.848 344.364 -17.6181C356.948 -13.513 367.564 -6.45491 374.315 3.76116C380.795 13.5672 382.35 24.2111 381.733 33.8612C380.545 52.4241 370.894 73.1806 358.887 93.2107C334.425 134.02 292.533 183.875 252.732 230.579C249.624 234.226 246.53 237.853 243.456 241.456C206.202 285.122 171.934 325.287 152.537 355.365C147.712 362.846 144.134 369.219 141.742 374.483C145.952 372.87 151.304 370.197 157.892 365.895C171.047 357.305 185.933 344.321 202.249 327.57C234.867 294.086 269.696 249.261 304.352 204.048C306.792 200.864 309.233 197.677 311.672 194.492C343.302 153.184 374.764 112.098 402.635 82.6344C417.495 66.9262 432.927 52.767 448.287 43.6686C462.641 35.166 486.578 25.7836 510.475 37.7102C531.839 48.3729 543.98 64.4358 546.193 83.5443C548.201 100.886 541.769 118.372 533.292 133.802C516.311 164.714 484.561 198.665 456.162 227.947C451.411 232.845 446.774 237.596 442.288 242.192C422.94 262.016 406.41 278.952 395.714 292.399C401.301 290.416 407.923 287.347 415.556 282.924C429.587 274.795 444.412 263.642 458.933 251.289C479.51 233.787 496.646 216.526 509.91 203.165C516.048 196.983 521.356 191.636 525.793 187.487C536.405 177.561 554.601 176.731 566.434 185.632C578.268 194.532 579.258 209.794 568.646 219.719C566.181 222.025 562.272 225.954 557.28 230.972C543.733 244.59 522.211 266.226 499.92 285.187C484.14 298.609 466.463 312.107 448.272 322.647C430.617 332.876 409.557 342.056 387.406 343.46C377.743 344.072 367.605 343.872 358.288 341.542C348.353 339.058 337.59 333.597 331.66 323.208C326.177 313.603 327.308 304 329.221 297.385C331.186 290.588 334.803 284.021 338.646 278.175C351.019 259.355 375.015 234.825 398.69 210.623C402.998 206.219 407.295 201.827 411.509 197.481C440.661 167.424 467.571 138.069 481.014 113.599C487.749 101.338 489.469 93.1136 488.902 88.211C488.623 85.8087 487.876 83.6536 484.693 81.3551C483.847 81.7699 482.788 82.3363 481.493 83.1036C473.068 88.0942 461.769 97.7974 447.727 112.642C421.738 140.115 391.798 179.205 359.491 221.383C357.262 224.293 355.021 227.219 352.77 230.156C318.474 274.9 281.883 322.125 246.824 358.116C229.303 376.103 211.287 392.213 193.253 403.989C175.786 415.395 154.67 425.145 131.53 424.998L131.515 424.998C120.245 424.922 106.687 422.846 95.7959 414.75C84.2044 406.133 80.848 394.664 80.8233 385.188C80.7997 376.142 83.6805 367.043 87.2382 358.899C90.9105 350.491 96.0064 341.547 101.908 332.396C123.137 299.479 159.564 256.802 195.912 214.217C199.247 210.31 202.582 206.404 205.904 202.505C246.404 154.98 285.4 108.328 307.46 71.5249C318.715 52.7488 323.733 39.423 324.255 31.2741C324.379 29.3402 324.212 28.1788 324.067 27.5766C323.917 27.5191 323.73 27.4521 323.499 27.3769C323.487 27.3729 323.475 27.3689 323.463 27.365C323.279 27.3037 323.131 27.2543 322.49 27.3492C321.518 27.4932 319.337 28.0361 315.821 29.8984C308.412 33.8229 298.949 41.4998 287.554 53.6334C266.483 76.071 244.318 107.59 220.635 141.269C218.79 143.893 216.935 146.53 215.072 149.177C190.155 184.562 163.319 222.057 136.388 247.504C122.995 260.16 107.433 271.961 89.7547 278.332ZM487.418 80.2931C487.409 80.3126 487.219 80.3754 486.877 80.4228C487.256 80.2973 487.427 80.2736 487.418 80.2931ZM385.105 308.984C385.104 308.985 385.11 308.946 385.132 308.863C385.118 308.942 385.107 308.984 385.105 308.984ZM129.794 376.586C129.795 376.585 129.843 376.592 129.932 376.611C129.836 376.597 129.792 376.588 129.794 376.586ZM89.7069 66.1965C89.9958 66.1721 90.1275 66.1733 90.1211 66.18C90.1147 66.1867 89.9702 66.1989 89.7069 66.1965Z" fill="#EDF9FE"/>
</svg>
